<?xml version="1.0" encoding="UTF-8" standalone="no"?>
<!DOCTYPE svg PUBLIC "-//W3C//DTD SVG 1.1//EN"
 "http://www.w3.org/Graphics/SVG/1.1/DTD/svg11.dtd">
<!-- Generated by graphviz version 2.40.1 (20161225.0304)
 -->
<!-- Title: controllers_diagram Pages: 1 -->
<svg width="455pt" height="441pt"
 viewBox="0.00 0.00 455.00 441.00" xmlns="http://www.w3.org/2000/svg" xmlns:xlink="http://www.w3.org/1999/xlink">
<g id="graph0" class="graph" transform="scale(1 1) rotate(0) translate(4 437)">
<title>controllers_diagram</title>
<polygon fill="transparent" stroke="transparent" points="-4,4 -4,-437 451,-437 451,4 -4,4"/>
<!-- _diagram_info -->
<g id="node1" class="node">
<title>_diagram_info</title>
<text text-anchor="start" x="60" y="-180.6" font-family="Times,serif" font-size="13.00" fill="#000000">Controllers diagram</text>
<text text-anchor="start" x="60" y="-166.6" font-family="Times,serif" font-size="13.00" fill="#000000">Date: Dec 11 2018 &#45; 14:08</text>
<text text-anchor="start" x="60" y="-152.6" font-family="Times,serif" font-size="13.00" fill="#000000">Migration version: 20181211113402</text>
<text text-anchor="start" x="60" y="-138.6" font-family="Times,serif" font-size="13.00" fill="#000000">Generated by RailRoady 1.5.3</text>
<text text-anchor="start" x="60" y="-124.6" font-family="Times,serif" font-size="13.00" fill="#000000">http://railroady.prestonlee.com</text>
</g>
<!-- ProductsController -->
<g id="node2" class="node">
<title>ProductsController</title>
<path fill="none" stroke="#000000" d="M90,-260.5C90,-260.5 185,-260.5 185,-260.5 191,-260.5 197,-266.5 197,-272.5 197,-272.5 197,-342.5 197,-342.5 197,-348.5 191,-354.5 185,-354.5 185,-354.5 90,-354.5 90,-354.5 84,-354.5 78,-348.5 78,-342.5 78,-342.5 78,-272.5 78,-272.5 78,-266.5 84,-260.5 90,-260.5"/>
<text text-anchor="middle" x="137.5" y="-339.3" font-family="Times,serif" font-size="14.00" fill="#000000">ProductsController</text>
<polyline fill="none" stroke="#000000" points="78,-331.5 197,-331.5 "/>
<polyline fill="none" stroke="#000000" points="78,-307.5 197,-307.5 "/>
<polyline fill="none" stroke="#000000" points="78,-283.5 197,-283.5 "/>
<text text-anchor="start" x="86" y="-268.3" font-family="Times,serif" font-size="14.00" fill="#000000">_layout</text>
</g>
<!-- QuestionsController -->
<g id="node3" class="node">
<title>QuestionsController</title>
<path fill="none" stroke="#000000" d="M311,-39.5C311,-39.5 413,-39.5 413,-39.5 419,-39.5 425,-45.5 425,-51.5 425,-51.5 425,-121.5 425,-121.5 425,-127.5 419,-133.5 413,-133.5 413,-133.5 311,-133.5 311,-133.5 305,-133.5 299,-127.5 299,-121.5 299,-121.5 299,-51.5 299,-51.5 299,-45.5 305,-39.5 311,-39.5"/>
<text text-anchor="middle" x="362" y="-118.3" font-family="Times,serif" font-size="14.00" fill="#000000">QuestionsController</text>
<polyline fill="none" stroke="#000000" points="299,-110.5 425,-110.5 "/>
<polyline fill="none" stroke="#000000" points="299,-86.5 425,-86.5 "/>
<polyline fill="none" stroke="#000000" points="299,-62.5 425,-62.5 "/>
<text text-anchor="start" x="307" y="-47.3" font-family="Times,serif" font-size="14.00" fill="#000000">_layout</text>
</g>
<!-- PagesController -->
<g id="node4" class="node">
<title>PagesController</title>
<path fill="none" stroke="#000000" d="M181,-.5C181,-.5 261,-.5 261,-.5 267,-.5 273,-6.5 273,-12.5 273,-12.5 273,-81.5 273,-81.5 273,-87.5 267,-93.5 261,-93.5 261,-93.5 181,-93.5 181,-93.5 175,-93.5 169,-87.5 169,-81.5 169,-81.5 169,-12.5 169,-12.5 169,-6.5 175,-.5 181,-.5"/>
<text text-anchor="middle" x="221" y="-78.3" font-family="Times,serif" font-size="14.00" fill="#000000">PagesController</text>
<polyline fill="none" stroke="#000000" points="169,-70.5 273,-70.5 "/>
<text text-anchor="start" x="177" y="-55.3" font-family="Times,serif" font-size="14.00" fill="#000000">index</text>
<polyline fill="none" stroke="#000000" points="169,-47.5 273,-47.5 "/>
<polyline fill="none" stroke="#000000" points="169,-23.5 273,-23.5 "/>
<text text-anchor="start" x="177" y="-8.3" font-family="Times,serif" font-size="14.00" fill="#000000">_layout</text>
</g>
<!-- PostsController -->
<g id="node5" class="node">
<title>PostsController</title>
<path fill="none" stroke="#000000" d="M12,-.5C12,-.5 89,-.5 89,-.5 95,-.5 101,-6.5 101,-12.5 101,-12.5 101,-82.5 101,-82.5 101,-88.5 95,-94.5 89,-94.5 89,-94.5 12,-94.5 12,-94.5 6,-94.5 0,-88.5 0,-82.5 0,-82.5 0,-12.5 0,-12.5 0,-6.5 6,-.5 12,-.5"/>
<text text-anchor="middle" x="50.5" y="-79.3" font-family="Times,serif" font-size="14.00" fill="#000000">PostsController</text>
<polyline fill="none" stroke="#000000" points="0,-71.5 101,-71.5 "/>
<polyline fill="none" stroke="#000000" points="0,-47.5 101,-47.5 "/>
<polyline fill="none" stroke="#000000" points="0,-23.5 101,-23.5 "/>
<text text-anchor="start" x="8" y="-8.3" font-family="Times,serif" font-size="14.00" fill="#000000">_layout</text>
</g>
<!-- OrdersController -->
<g id="node6" class="node">
<title>OrdersController</title>
<path fill="none" stroke="#000000" d="M350,-338.5C350,-338.5 435,-338.5 435,-338.5 441,-338.5 447,-344.5 447,-350.5 447,-350.5 447,-420.5 447,-420.5 447,-426.5 441,-432.5 435,-432.5 435,-432.5 350,-432.5 350,-432.5 344,-432.5 338,-426.5 338,-420.5 338,-420.5 338,-350.5 338,-350.5 338,-344.5 344,-338.5 350,-338.5"/>
<text text-anchor="middle" x="392.5" y="-417.3" font-family="Times,serif" font-size="14.00" fill="#000000">OrdersController</text>
<polyline fill="none" stroke="#000000" points="338,-409.5 447,-409.5 "/>
<polyline fill="none" stroke="#000000" points="338,-385.5 447,-385.5 "/>
<polyline fill="none" stroke="#000000" points="338,-361.5 447,-361.5 "/>
<text text-anchor="start" x="346" y="-346.3" font-family="Times,serif" font-size="14.00" fill="#000000">_layout</text>
</g>
<!-- ApplicationController -->
<g id="node7" class="node">
<title>ApplicationController</title>
<path fill="none" stroke="#000000" d="M233,-221.5C233,-221.5 345,-221.5 345,-221.5 351,-221.5 357,-227.5 357,-233.5 357,-233.5 357,-303.5 357,-303.5 357,-309.5 351,-315.5 345,-315.5 345,-315.5 233,-315.5 233,-315.5 227,-315.5 221,-309.5 221,-303.5 221,-303.5 221,-233.5 221,-233.5 221,-227.5 227,-221.5 233,-221.5"/>
<text text-anchor="middle" x="289" y="-300.3" font-family="Times,serif" font-size="14.00" fill="#000000">ApplicationController</text>
<polyline fill="none" stroke="#000000" points="221,-292.5 357,-292.5 "/>
<polyline fill="none" stroke="#000000" points="221,-268.5 357,-268.5 "/>
<polyline fill="none" stroke="#000000" points="221,-244.5 357,-244.5 "/>
<text text-anchor="start" x="229" y="-229.3" font-family="Times,serif" font-size="14.00" fill="#000000">_layout</text>
</g>
</g>
</svg>
