<?xml version="1.0" encoding="UTF-8" standalone="no"?>
<!DOCTYPE svg PUBLIC "-//W3C//DTD SVG 1.1//EN"
 "http://www.w3.org/Graphics/SVG/1.1/DTD/svg11.dtd">
<!-- Generated by graphviz version 2.40.1 (20161225.0304)
 -->
<!-- Title: controllers_diagram Pages: 1 -->
<svg width="564pt" height="509pt"
 viewBox="0.00 0.00 564.00 509.00" xmlns="http://www.w3.org/2000/svg" xmlns:xlink="http://www.w3.org/1999/xlink">
<g id="graph0" class="graph" transform="scale(1 1) rotate(0) translate(4 505)">
<title>controllers_diagram</title>
<polygon fill="transparent" stroke="transparent" points="-4,4 -4,-505 560,-505 560,4 -4,4"/>
<!-- _diagram_info -->
<g id="node1" class="node">
<title>_diagram_info</title>
<text text-anchor="start" x="288" y="-189.6" font-family="Times,serif" font-size="13.00" fill="#000000">Controllers diagram</text>
<text text-anchor="start" x="288" y="-175.6" font-family="Times,serif" font-size="13.00" fill="#000000">Date: Dec 17 2018 &#45; 21:59</text>
<text text-anchor="start" x="288" y="-161.6" font-family="Times,serif" font-size="13.00" fill="#000000">Migration version: 20181216114206</text>
<text text-anchor="start" x="288" y="-147.6" font-family="Times,serif" font-size="13.00" fill="#000000">Generated by RailRoady 1.5.3</text>
<text text-anchor="start" x="288" y="-133.6" font-family="Times,serif" font-size="13.00" fill="#000000">http://railroady.prestonlee.com</text>
</g>
<!-- ProductsController -->
<g id="node2" class="node">
<title>ProductsController</title>
<path fill="none" stroke="#000000" d="M12,-406.5C12,-406.5 107,-406.5 107,-406.5 113,-406.5 119,-412.5 119,-418.5 119,-418.5 119,-487.5 119,-487.5 119,-493.5 113,-499.5 107,-499.5 107,-499.5 12,-499.5 12,-499.5 6,-499.5 0,-493.5 0,-487.5 0,-487.5 0,-418.5 0,-418.5 0,-412.5 6,-406.5 12,-406.5"/>
<text text-anchor="middle" x="59.5" y="-484.3" font-family="Times,serif" font-size="14.00" fill="#000000">ProductsController</text>
<polyline fill="none" stroke="#000000" points="0,-476.5 119,-476.5 "/>
<text text-anchor="start" x="8" y="-461.3" font-family="Times,serif" font-size="14.00" fill="#000000">show</text>
<polyline fill="none" stroke="#000000" points="0,-453.5 119,-453.5 "/>
<polyline fill="none" stroke="#000000" points="0,-429.5 119,-429.5 "/>
<text text-anchor="start" x="8" y="-414.3" font-family="Times,serif" font-size="14.00" fill="#000000">_layout</text>
</g>
<!-- CategoriesController -->
<g id="node3" class="node">
<title>CategoriesController</title>
<path fill="none" stroke="#000000" d="M292,-.5C292,-.5 398,-.5 398,-.5 404,-.5 410,-6.5 410,-12.5 410,-12.5 410,-81.5 410,-81.5 410,-87.5 404,-93.5 398,-93.5 398,-93.5 292,-93.5 292,-93.5 286,-93.5 280,-87.5 280,-81.5 280,-81.5 280,-12.5 280,-12.5 280,-6.5 286,-.5 292,-.5"/>
<text text-anchor="middle" x="345" y="-78.3" font-family="Times,serif" font-size="14.00" fill="#000000">CategoriesController</text>
<polyline fill="none" stroke="#000000" points="280,-70.5 410,-70.5 "/>
<text text-anchor="start" x="288" y="-55.3" font-family="Times,serif" font-size="14.00" fill="#000000">show</text>
<polyline fill="none" stroke="#000000" points="280,-47.5 410,-47.5 "/>
<polyline fill="none" stroke="#000000" points="280,-23.5 410,-23.5 "/>
<text text-anchor="start" x="288" y="-8.3" font-family="Times,serif" font-size="14.00" fill="#000000">_layout</text>
</g>
<!-- QuestionsController -->
<g id="node4" class="node">
<title>QuestionsController</title>
<path fill="none" stroke="#000000" d="M292,-238.5C292,-238.5 394,-238.5 394,-238.5 400,-238.5 406,-244.5 406,-250.5 406,-250.5 406,-364.5 406,-364.5 406,-370.5 400,-376.5 394,-376.5 394,-376.5 292,-376.5 292,-376.5 286,-376.5 280,-370.5 280,-364.5 280,-364.5 280,-250.5 280,-250.5 280,-244.5 286,-238.5 292,-238.5"/>
<text text-anchor="middle" x="343" y="-361.3" font-family="Times,serif" font-size="14.00" fill="#000000">QuestionsController</text>
<polyline fill="none" stroke="#000000" points="280,-353.5 406,-353.5 "/>
<text text-anchor="start" x="288" y="-338.3" font-family="Times,serif" font-size="14.00" fill="#000000">create</text>
<text text-anchor="start" x="288" y="-323.3" font-family="Times,serif" font-size="14.00" fill="#000000">new</text>
<polyline fill="none" stroke="#000000" points="280,-315.5 406,-315.5 "/>
<polyline fill="none" stroke="#000000" points="280,-291.5 406,-291.5 "/>
<text text-anchor="start" x="288" y="-276.3" font-family="Times,serif" font-size="14.00" fill="#000000">_layout</text>
<text text-anchor="start" x="288" y="-261.3" font-family="Times,serif" font-size="14.00" fill="#000000">question_params</text>
<text text-anchor="start" x="288" y="-246.3" font-family="Times,serif" font-size="14.00" fill="#000000">set_product</text>
</g>
<!-- PagesController -->
<g id="node5" class="node">
<title>PagesController</title>
<path fill="none" stroke="#000000" d="M292,-406.5C292,-406.5 372,-406.5 372,-406.5 378,-406.5 384,-412.5 384,-418.5 384,-418.5 384,-487.5 384,-487.5 384,-493.5 378,-499.5 372,-499.5 372,-499.5 292,-499.5 292,-499.5 286,-499.5 280,-493.5 280,-487.5 280,-487.5 280,-418.5 280,-418.5 280,-412.5 286,-406.5 292,-406.5"/>
<text text-anchor="middle" x="332" y="-484.3" font-family="Times,serif" font-size="14.00" fill="#000000">PagesController</text>
<polyline fill="none" stroke="#000000" points="280,-476.5 384,-476.5 "/>
<text text-anchor="start" x="288" y="-461.3" font-family="Times,serif" font-size="14.00" fill="#000000">index</text>
<polyline fill="none" stroke="#000000" points="280,-453.5 384,-453.5 "/>
<polyline fill="none" stroke="#000000" points="280,-429.5 384,-429.5 "/>
<text text-anchor="start" x="288" y="-414.3" font-family="Times,serif" font-size="14.00" fill="#000000">_layout</text>
</g>
<!-- PostsController -->
<g id="node6" class="node">
<title>PostsController</title>
<path fill="none" stroke="#000000" d="M166,-308.5C166,-308.5 243,-308.5 243,-308.5 249,-308.5 255,-314.5 255,-320.5 255,-320.5 255,-434.5 255,-434.5 255,-440.5 249,-446.5 243,-446.5 243,-446.5 166,-446.5 166,-446.5 160,-446.5 154,-440.5 154,-434.5 154,-434.5 154,-320.5 154,-320.5 154,-314.5 160,-308.5 166,-308.5"/>
<text text-anchor="middle" x="204.5" y="-431.3" font-family="Times,serif" font-size="14.00" fill="#000000">PostsController</text>
<polyline fill="none" stroke="#000000" points="154,-423.5 255,-423.5 "/>
<text text-anchor="start" x="162" y="-408.3" font-family="Times,serif" font-size="14.00" fill="#000000">create</text>
<text text-anchor="start" x="162" y="-393.3" font-family="Times,serif" font-size="14.00" fill="#000000">new</text>
<polyline fill="none" stroke="#000000" points="154,-385.5 255,-385.5 "/>
<polyline fill="none" stroke="#000000" points="154,-361.5 255,-361.5 "/>
<text text-anchor="start" x="162" y="-346.3" font-family="Times,serif" font-size="14.00" fill="#000000">_layout</text>
<text text-anchor="start" x="162" y="-331.3" font-family="Times,serif" font-size="14.00" fill="#000000">post_params</text>
<text text-anchor="start" x="162" y="-316.3" font-family="Times,serif" font-size="14.00" fill="#000000">set_product</text>
</g>
<!-- OrdersController -->
<g id="node7" class="node">
<title>OrdersController</title>
<path fill="none" stroke="#000000" d="M12,-280.5C12,-280.5 97,-280.5 97,-280.5 103,-280.5 109,-286.5 109,-292.5 109,-292.5 109,-362.5 109,-362.5 109,-368.5 103,-374.5 97,-374.5 97,-374.5 12,-374.5 12,-374.5 6,-374.5 0,-368.5 0,-362.5 0,-362.5 0,-292.5 0,-292.5 0,-286.5 6,-280.5 12,-280.5"/>
<text text-anchor="middle" x="54.5" y="-359.3" font-family="Times,serif" font-size="14.00" fill="#000000">OrdersController</text>
<polyline fill="none" stroke="#000000" points="0,-351.5 109,-351.5 "/>
<polyline fill="none" stroke="#000000" points="0,-327.5 109,-327.5 "/>
<polyline fill="none" stroke="#000000" points="0,-303.5 109,-303.5 "/>
<text text-anchor="start" x="8" y="-288.3" font-family="Times,serif" font-size="14.00" fill="#000000">_layout</text>
</g>
<!-- ProfilesController -->
<g id="node8" class="node">
<title>ProfilesController</title>
<path fill="none" stroke="#000000" d="M152,-98.5C152,-98.5 242,-98.5 242,-98.5 248,-98.5 254,-104.5 254,-110.5 254,-110.5 254,-269.5 254,-269.5 254,-275.5 248,-281.5 242,-281.5 242,-281.5 152,-281.5 152,-281.5 146,-281.5 140,-275.5 140,-269.5 140,-269.5 140,-110.5 140,-110.5 140,-104.5 146,-98.5 152,-98.5"/>
<text text-anchor="middle" x="197" y="-266.3" font-family="Times,serif" font-size="14.00" fill="#000000">ProfilesController</text>
<polyline fill="none" stroke="#000000" points="140,-258.5 254,-258.5 "/>
<text text-anchor="start" x="148" y="-243.3" font-family="Times,serif" font-size="14.00" fill="#000000">create</text>
<text text-anchor="start" x="148" y="-228.3" font-family="Times,serif" font-size="14.00" fill="#000000">destroy</text>
<text text-anchor="start" x="148" y="-213.3" font-family="Times,serif" font-size="14.00" fill="#000000">edit</text>
<text text-anchor="start" x="148" y="-198.3" font-family="Times,serif" font-size="14.00" fill="#000000">new</text>
<text text-anchor="start" x="148" y="-183.3" font-family="Times,serif" font-size="14.00" fill="#000000">show</text>
<text text-anchor="start" x="148" y="-168.3" font-family="Times,serif" font-size="14.00" fill="#000000">update</text>
<polyline fill="none" stroke="#000000" points="140,-160.5 254,-160.5 "/>
<polyline fill="none" stroke="#000000" points="140,-136.5 254,-136.5 "/>
<text text-anchor="start" x="148" y="-121.3" font-family="Times,serif" font-size="14.00" fill="#000000">_layout</text>
<text text-anchor="start" x="148" y="-106.3" font-family="Times,serif" font-size="14.00" fill="#000000">profile_params</text>
</g>
<!-- ApplicationController -->
<g id="node9" class="node">
<title>ApplicationController</title>
<path fill="none" stroke="#000000" d="M432,-406.5C432,-406.5 544,-406.5 544,-406.5 550,-406.5 556,-412.5 556,-418.5 556,-418.5 556,-488.5 556,-488.5 556,-494.5 550,-500.5 544,-500.5 544,-500.5 432,-500.5 432,-500.5 426,-500.5 420,-494.5 420,-488.5 420,-488.5 420,-418.5 420,-418.5 420,-412.5 426,-406.5 432,-406.5"/>
<text text-anchor="middle" x="488" y="-485.3" font-family="Times,serif" font-size="14.00" fill="#000000">ApplicationController</text>
<polyline fill="none" stroke="#000000" points="420,-477.5 556,-477.5 "/>
<polyline fill="none" stroke="#000000" points="420,-453.5 556,-453.5 "/>
<polyline fill="none" stroke="#000000" points="420,-429.5 556,-429.5 "/>
<text text-anchor="start" x="428" y="-414.3" font-family="Times,serif" font-size="14.00" fill="#000000">_layout</text>
</g>
</g>
</svg>
