<?xml version="1.0" encoding="UTF-8" standalone="no"?>
<!DOCTYPE svg PUBLIC "-//W3C//DTD SVG 1.1//EN"
 "http://www.w3.org/Graphics/SVG/1.1/DTD/svg11.dtd">
<!-- Generated by graphviz version 2.40.1 (20161225.0304)
 -->
<!-- Title: controllers_diagram Pages: 1 -->
<svg width="522pt" height="523pt"
 viewBox="0.00 0.00 522.00 523.00" xmlns="http://www.w3.org/2000/svg" xmlns:xlink="http://www.w3.org/1999/xlink">
<g id="graph0" class="graph" transform="scale(1 1) rotate(0) translate(4 519)">
<title>controllers_diagram</title>
<polygon fill="transparent" stroke="transparent" points="-4,4 -4,-519 518,-519 518,4 -4,4"/>
<!-- _diagram_info -->
<g id="node1" class="node">
<title>_diagram_info</title>
<text text-anchor="start" x="308" y="-183.6" font-family="Times,serif" font-size="13.00" fill="#000000">Controllers diagram</text>
<text text-anchor="start" x="308" y="-169.6" font-family="Times,serif" font-size="13.00" fill="#000000">Date: Dec 15 2018 &#45; 21:28</text>
<text text-anchor="start" x="308" y="-155.6" font-family="Times,serif" font-size="13.00" fill="#000000">Migration version: 20181211113402</text>
<text text-anchor="start" x="308" y="-141.6" font-family="Times,serif" font-size="13.00" fill="#000000">Generated by RailRoady 1.5.3</text>
<text text-anchor="start" x="308" y="-127.6" font-family="Times,serif" font-size="13.00" fill="#000000">http://railroady.prestonlee.com</text>
</g>
<!-- ProductsController -->
<g id="node2" class="node">
<title>ProductsController</title>
<path fill="none" stroke="#000000" d="M312,-225.5C312,-225.5 407,-225.5 407,-225.5 413,-225.5 419,-231.5 419,-237.5 419,-237.5 419,-396.5 419,-396.5 419,-402.5 413,-408.5 407,-408.5 407,-408.5 312,-408.5 312,-408.5 306,-408.5 300,-402.5 300,-396.5 300,-396.5 300,-237.5 300,-237.5 300,-231.5 306,-225.5 312,-225.5"/>
<text text-anchor="middle" x="359.5" y="-393.3" font-family="Times,serif" font-size="14.00" fill="#000000">ProductsController</text>
<polyline fill="none" stroke="#000000" points="300,-385.5 419,-385.5 "/>
<text text-anchor="start" x="308" y="-370.3" font-family="Times,serif" font-size="14.00" fill="#000000">create</text>
<text text-anchor="start" x="308" y="-355.3" font-family="Times,serif" font-size="14.00" fill="#000000">destroy</text>
<text text-anchor="start" x="308" y="-340.3" font-family="Times,serif" font-size="14.00" fill="#000000">edit</text>
<text text-anchor="start" x="308" y="-325.3" font-family="Times,serif" font-size="14.00" fill="#000000">new</text>
<text text-anchor="start" x="308" y="-310.3" font-family="Times,serif" font-size="14.00" fill="#000000">show</text>
<text text-anchor="start" x="308" y="-295.3" font-family="Times,serif" font-size="14.00" fill="#000000">update</text>
<polyline fill="none" stroke="#000000" points="300,-287.5 419,-287.5 "/>
<polyline fill="none" stroke="#000000" points="300,-263.5 419,-263.5 "/>
<text text-anchor="start" x="308" y="-248.3" font-family="Times,serif" font-size="14.00" fill="#000000">_layout</text>
<text text-anchor="start" x="308" y="-233.3" font-family="Times,serif" font-size="14.00" fill="#000000">product_params</text>
</g>
<!-- CategoriesController -->
<g id="node3" class="node">
<title>CategoriesController</title>
<path fill="none" stroke="#000000" d="M147,-105.5C147,-105.5 253,-105.5 253,-105.5 259,-105.5 265,-111.5 265,-117.5 265,-117.5 265,-276.5 265,-276.5 265,-282.5 259,-288.5 253,-288.5 253,-288.5 147,-288.5 147,-288.5 141,-288.5 135,-282.5 135,-276.5 135,-276.5 135,-117.5 135,-117.5 135,-111.5 141,-105.5 147,-105.5"/>
<text text-anchor="middle" x="200" y="-273.3" font-family="Times,serif" font-size="14.00" fill="#000000">CategoriesController</text>
<polyline fill="none" stroke="#000000" points="135,-265.5 265,-265.5 "/>
<text text-anchor="start" x="143" y="-250.3" font-family="Times,serif" font-size="14.00" fill="#000000">create</text>
<text text-anchor="start" x="143" y="-235.3" font-family="Times,serif" font-size="14.00" fill="#000000">destroy</text>
<text text-anchor="start" x="143" y="-220.3" font-family="Times,serif" font-size="14.00" fill="#000000">edit</text>
<text text-anchor="start" x="143" y="-205.3" font-family="Times,serif" font-size="14.00" fill="#000000">new</text>
<text text-anchor="start" x="143" y="-190.3" font-family="Times,serif" font-size="14.00" fill="#000000">show</text>
<text text-anchor="start" x="143" y="-175.3" font-family="Times,serif" font-size="14.00" fill="#000000">update</text>
<polyline fill="none" stroke="#000000" points="135,-167.5 265,-167.5 "/>
<polyline fill="none" stroke="#000000" points="135,-143.5 265,-143.5 "/>
<text text-anchor="start" x="143" y="-128.3" font-family="Times,serif" font-size="14.00" fill="#000000">_layout</text>
<text text-anchor="start" x="143" y="-113.3" font-family="Times,serif" font-size="14.00" fill="#000000">categorie_params</text>
</g>
<!-- QuestionsController -->
<g id="node4" class="node">
<title>QuestionsController</title>
<path fill="none" stroke="#000000" d="M312,-.5C312,-.5 414,-.5 414,-.5 420,-.5 426,-6.5 426,-12.5 426,-12.5 426,-82.5 426,-82.5 426,-88.5 420,-94.5 414,-94.5 414,-94.5 312,-94.5 312,-94.5 306,-94.5 300,-88.5 300,-82.5 300,-82.5 300,-12.5 300,-12.5 300,-6.5 306,-.5 312,-.5"/>
<text text-anchor="middle" x="363" y="-79.3" font-family="Times,serif" font-size="14.00" fill="#000000">QuestionsController</text>
<polyline fill="none" stroke="#000000" points="300,-71.5 426,-71.5 "/>
<polyline fill="none" stroke="#000000" points="300,-47.5 426,-47.5 "/>
<polyline fill="none" stroke="#000000" points="300,-23.5 426,-23.5 "/>
<text text-anchor="start" x="308" y="-8.3" font-family="Times,serif" font-size="14.00" fill="#000000">_layout</text>
</g>
<!-- PagesController -->
<g id="node5" class="node">
<title>PagesController</title>
<path fill="none" stroke="#000000" d="M12,-300.5C12,-300.5 92,-300.5 92,-300.5 98,-300.5 104,-306.5 104,-312.5 104,-312.5 104,-381.5 104,-381.5 104,-387.5 98,-393.5 92,-393.5 92,-393.5 12,-393.5 12,-393.5 6,-393.5 0,-387.5 0,-381.5 0,-381.5 0,-312.5 0,-312.5 0,-306.5 6,-300.5 12,-300.5"/>
<text text-anchor="middle" x="52" y="-378.3" font-family="Times,serif" font-size="14.00" fill="#000000">PagesController</text>
<polyline fill="none" stroke="#000000" points="0,-370.5 104,-370.5 "/>
<text text-anchor="start" x="8" y="-355.3" font-family="Times,serif" font-size="14.00" fill="#000000">index</text>
<polyline fill="none" stroke="#000000" points="0,-347.5 104,-347.5 "/>
<polyline fill="none" stroke="#000000" points="0,-323.5 104,-323.5 "/>
<text text-anchor="start" x="8" y="-308.3" font-family="Times,serif" font-size="14.00" fill="#000000">_layout</text>
</g>
<!-- PostsController -->
<g id="node6" class="node">
<title>PostsController</title>
<path fill="none" stroke="#000000" d="M12,-180.5C12,-180.5 89,-180.5 89,-180.5 95,-180.5 101,-186.5 101,-192.5 101,-192.5 101,-262.5 101,-262.5 101,-268.5 95,-274.5 89,-274.5 89,-274.5 12,-274.5 12,-274.5 6,-274.5 0,-268.5 0,-262.5 0,-262.5 0,-192.5 0,-192.5 0,-186.5 6,-180.5 12,-180.5"/>
<text text-anchor="middle" x="50.5" y="-259.3" font-family="Times,serif" font-size="14.00" fill="#000000">PostsController</text>
<polyline fill="none" stroke="#000000" points="0,-251.5 101,-251.5 "/>
<polyline fill="none" stroke="#000000" points="0,-227.5 101,-227.5 "/>
<polyline fill="none" stroke="#000000" points="0,-203.5 101,-203.5 "/>
<text text-anchor="start" x="8" y="-188.3" font-family="Times,serif" font-size="14.00" fill="#000000">_layout</text>
</g>
<!-- OrdersController -->
<g id="node7" class="node">
<title>OrdersController</title>
<path fill="none" stroke="#000000" d="M12,-420.5C12,-420.5 97,-420.5 97,-420.5 103,-420.5 109,-426.5 109,-432.5 109,-432.5 109,-502.5 109,-502.5 109,-508.5 103,-514.5 97,-514.5 97,-514.5 12,-514.5 12,-514.5 6,-514.5 0,-508.5 0,-502.5 0,-502.5 0,-432.5 0,-432.5 0,-426.5 6,-420.5 12,-420.5"/>
<text text-anchor="middle" x="54.5" y="-499.3" font-family="Times,serif" font-size="14.00" fill="#000000">OrdersController</text>
<polyline fill="none" stroke="#000000" points="0,-491.5 109,-491.5 "/>
<polyline fill="none" stroke="#000000" points="0,-467.5 109,-467.5 "/>
<polyline fill="none" stroke="#000000" points="0,-443.5 109,-443.5 "/>
<text text-anchor="start" x="8" y="-428.3" font-family="Times,serif" font-size="14.00" fill="#000000">_layout</text>
</g>
<!-- ApplicationController -->
<g id="node8" class="node">
<title>ApplicationController</title>
<path fill="none" stroke="#000000" d="M147,-315.5C147,-315.5 259,-315.5 259,-315.5 265,-315.5 271,-321.5 271,-327.5 271,-327.5 271,-397.5 271,-397.5 271,-403.5 265,-409.5 259,-409.5 259,-409.5 147,-409.5 147,-409.5 141,-409.5 135,-403.5 135,-397.5 135,-397.5 135,-327.5 135,-327.5 135,-321.5 141,-315.5 147,-315.5"/>
<text text-anchor="middle" x="203" y="-394.3" font-family="Times,serif" font-size="14.00" fill="#000000">ApplicationController</text>
<polyline fill="none" stroke="#000000" points="135,-386.5 271,-386.5 "/>
<polyline fill="none" stroke="#000000" points="135,-362.5 271,-362.5 "/>
<polyline fill="none" stroke="#000000" points="135,-338.5 271,-338.5 "/>
<text text-anchor="start" x="143" y="-323.3" font-family="Times,serif" font-size="14.00" fill="#000000">_layout</text>
</g>
</g>
</svg>
