<?xml version="1.0" encoding="UTF-8" standalone="no"?>
<!DOCTYPE svg PUBLIC "-//W3C//DTD SVG 1.1//EN"
 "http://www.w3.org/Graphics/SVG/1.1/DTD/svg11.dtd">
<!-- Generated by graphviz version 2.40.1 (20161225.0304)
 -->
<!-- Title: models_diagram Pages: 1 -->
<svg width="880pt" height="230pt"
 viewBox="0.00 0.00 880.20 230.00" xmlns="http://www.w3.org/2000/svg" xmlns:xlink="http://www.w3.org/1999/xlink">
<g id="graph0" class="graph" transform="scale(1 1) rotate(0) translate(4 226)">
<title>models_diagram</title>
<polygon fill="transparent" stroke="transparent" points="-4,4 -4,-226 876.1972,-226 876.1972,4 -4,4"/>
<!-- _diagram_info -->
<g id="node1" class="node">
<title>_diagram_info</title>
<text text-anchor="start" x="8" y="-207.6" font-family="Times,serif" font-size="13.00" fill="#000000">Models diagram</text>
<text text-anchor="start" x="8" y="-193.6" font-family="Times,serif" font-size="13.00" fill="#000000">Date: Dec 15 2018 &#45; 21:28</text>
<text text-anchor="start" x="8" y="-179.6" font-family="Times,serif" font-size="13.00" fill="#000000">Migration version: 20181211113402</text>
<text text-anchor="start" x="8" y="-165.6" font-family="Times,serif" font-size="13.00" fill="#000000">Generated by RailRoady 1.5.3</text>
<text text-anchor="start" x="8" y="-151.6" font-family="Times,serif" font-size="13.00" fill="#000000">http://railroady.prestonlee.com</text>
</g>
<!-- AdminUser -->
<g id="node2" class="node">
<title>AdminUser</title>
<ellipse fill="none" stroke="#000000" cx="284" cy="-183" rx="51.9908" ry="18"/>
<text text-anchor="middle" x="284" y="-179.3" font-family="Times,serif" font-size="14.00" fill="#000000">AdminUser</text>
</g>
<!-- Profile -->
<g id="node3" class="node">
<title>Profile</title>
<ellipse fill="none" stroke="#000000" cx="381" cy="-90" rx="34.394" ry="18"/>
<text text-anchor="middle" x="381" y="-86.3" font-family="Times,serif" font-size="14.00" fill="#000000">Profile</text>
</g>
<!-- Post -->
<g id="node4" class="node">
<title>Post</title>
<ellipse fill="none" stroke="#000000" cx="472" cy="-18" rx="27" ry="18"/>
<text text-anchor="middle" x="472" y="-14.3" font-family="Times,serif" font-size="14.00" fill="#000000">Post</text>
</g>
<!-- Categorie -->
<g id="node5" class="node">
<title>Categorie</title>
<ellipse fill="none" stroke="#000000" cx="472" cy="-183" rx="44.6926" ry="18"/>
<text text-anchor="middle" x="472" y="-179.3" font-family="Times,serif" font-size="14.00" fill="#000000">Categorie</text>
</g>
<!-- Product -->
<g id="node9" class="node">
<title>Product</title>
<ellipse fill="none" stroke="#000000" cx="472" cy="-90" rx="38.1938" ry="18"/>
<text text-anchor="middle" x="472" y="-86.3" font-family="Times,serif" font-size="14.00" fill="#000000">Product</text>
</g>
<!-- Categorie&#45;&gt;Product -->
<g id="edge1" class="edge">
<title>Categorie&#45;&gt;Product</title>
<path fill="none" stroke="#650a79" d="M472,-156.4432C472,-144.4479 472,-130.268 472,-118.0949"/>
<ellipse fill="none" stroke="#650a79" cx="472" cy="-160.6262" rx="4" ry="4"/>
<polygon fill="#650a79" stroke="#650a79" points="472.0001,-118.0192 476.5,-108.0191 472,-113.0192 472,-108.0192 472,-108.0192 472,-108.0192 472,-113.0192 467.5,-108.0192 472.0001,-118.0192 472.0001,-118.0192"/>
</g>
<!-- ApplicationRecord -->
<g id="node6" class="node">
<title>ApplicationRecord</title>
<ellipse fill="none" stroke="#000000" cx="612" cy="-183" rx="77.1866" ry="18"/>
<text text-anchor="middle" x="612" y="-179.3" font-family="Times,serif" font-size="14.00" fill="#000000">ApplicationRecord</text>
</g>
<!-- Question -->
<g id="node7" class="node">
<title>Question</title>
<ellipse fill="none" stroke="#000000" cx="750" cy="-183" rx="42.4939" ry="18"/>
<text text-anchor="middle" x="750" y="-179.3" font-family="Times,serif" font-size="14.00" fill="#000000">Question</text>
</g>
<!-- Order -->
<g id="node8" class="node">
<title>Order</title>
<ellipse fill="none" stroke="#000000" cx="841" cy="-183" rx="31.3957" ry="18"/>
<text text-anchor="middle" x="841" y="-179.3" font-family="Times,serif" font-size="14.00" fill="#000000">Order</text>
</g>
<!-- Product&#45;&gt;Post -->
<g id="edge2" class="edge">
<title>Product&#45;&gt;Post</title>
<path fill="none" stroke="#69a7d5" d="M472,-63.8144C472,-58.2775 472,-52.4053 472,-46.7785"/>
<ellipse fill="none" stroke="#69a7d5" cx="472" cy="-67.8314" rx="4" ry="4"/>
<polygon fill="#69a7d5" stroke="#69a7d5" points="472.0001,-46.4133 476.5,-36.4132 472,-41.4133 472,-36.4133 472,-36.4133 472,-36.4133 472,-41.4133 467.5,-36.4133 472.0001,-46.4133 472.0001,-46.4133"/>
</g>
<!-- User -->
<g id="node10" class="node">
<title>User</title>
<ellipse fill="none" stroke="#000000" cx="381" cy="-183" rx="27.0966" ry="18"/>
<text text-anchor="middle" x="381" y="-179.3" font-family="Times,serif" font-size="14.00" fill="#000000">User</text>
</g>
<!-- User&#45;&gt;Profile -->
<g id="edge3" class="edge">
<title>User&#45;&gt;Profile</title>
<path fill="none" stroke="#cb202b" d="M381,-156.4432C381,-143.8421 381,-128.8302 381,-116.2664"/>
<ellipse fill="none" stroke="#cb202b" cx="381" cy="-160.6262" rx="4" ry="4"/>
<ellipse fill="#cb202b" stroke="#cb202b" cx="381" cy="-112.0192" rx="4" ry="4"/>
</g>
</g>
</svg>
