<?xml version="1.0" encoding="UTF-8" standalone="no"?>
<!DOCTYPE svg PUBLIC "-//W3C//DTD SVG 1.1//EN"
 "http://www.w3.org/Graphics/SVG/1.1/DTD/svg11.dtd">
<!-- Generated by graphviz version 2.40.1 (20161225.0304)
 -->
<!-- Title: models_diagram Pages: 1 -->
<svg width="1279pt" height="566pt"
 viewBox="0.00 0.00 1278.50 566.00" xmlns="http://www.w3.org/2000/svg" xmlns:xlink="http://www.w3.org/1999/xlink">
<g id="graph0" class="graph" transform="scale(1 1) rotate(0) translate(4 562)">
<title>models_diagram</title>
<polygon fill="transparent" stroke="transparent" points="-4,4 -4,-562 1274.5,-562 1274.5,4 -4,4"/>
<!-- _diagram_info -->
<g id="node1" class="node">
<title>_diagram_info</title>
<text text-anchor="start" x="8" y="-506.6" font-family="Times,serif" font-size="13.00" fill="#000000">Models diagram</text>
<text text-anchor="start" x="8" y="-492.6" font-family="Times,serif" font-size="13.00" fill="#000000">Date: Dec 15 2018 &#45; 21:28</text>
<text text-anchor="start" x="8" y="-478.6" font-family="Times,serif" font-size="13.00" fill="#000000">Migration version: 20181211113402</text>
<text text-anchor="start" x="8" y="-464.6" font-family="Times,serif" font-size="13.00" fill="#000000">Generated by RailRoady 1.5.3</text>
<text text-anchor="start" x="8" y="-450.6" font-family="Times,serif" font-size="13.00" fill="#000000">http://railroady.prestonlee.com</text>
</g>
<!-- AdminUser -->
<g id="node2" class="node">
<title>AdminUser</title>
<path fill="none" stroke="#000000" d="M244,-406.5C244,-406.5 420,-406.5 420,-406.5 426,-406.5 432,-412.5 432,-418.5 432,-418.5 432,-545.5 432,-545.5 432,-551.5 426,-557.5 420,-557.5 420,-557.5 244,-557.5 244,-557.5 238,-557.5 232,-551.5 232,-545.5 232,-545.5 232,-418.5 232,-418.5 232,-412.5 238,-406.5 244,-406.5"/>
<text text-anchor="middle" x="332" y="-542.3" font-family="Times,serif" font-size="14.00" fill="#000000">AdminUser</text>
<polyline fill="none" stroke="#000000" points="232,-534.5 432,-534.5 "/>
<text text-anchor="start" x="240" y="-519.3" font-family="Times,serif" font-size="14.00" fill="#000000">id :INTEGER</text>
<text text-anchor="start" x="240" y="-504.3" font-family="Times,serif" font-size="14.00" fill="#000000">email :varchar</text>
<text text-anchor="start" x="240" y="-489.3" font-family="Times,serif" font-size="14.00" fill="#000000">encrypted_password :varchar</text>
<text text-anchor="start" x="240" y="-474.3" font-family="Times,serif" font-size="14.00" fill="#000000">reset_password_token :varchar</text>
<text text-anchor="start" x="240" y="-459.3" font-family="Times,serif" font-size="14.00" fill="#000000">reset_password_sent_at :datetime</text>
<text text-anchor="start" x="240" y="-444.3" font-family="Times,serif" font-size="14.00" fill="#000000">remember_created_at :datetime</text>
<text text-anchor="start" x="240" y="-429.3" font-family="Times,serif" font-size="14.00" fill="#000000">created_at :datetime</text>
<text text-anchor="start" x="240" y="-414.3" font-family="Times,serif" font-size="14.00" fill="#000000">updated_at :datetime</text>
</g>
<!-- Profile -->
<g id="node3" class="node">
<title>Profile</title>
<path fill="none" stroke="#000000" d="M475,-173.5C475,-173.5 625,-173.5 625,-173.5 631,-173.5 637,-179.5 637,-185.5 637,-185.5 637,-357.5 637,-357.5 637,-363.5 631,-369.5 625,-369.5 625,-369.5 475,-369.5 475,-369.5 469,-369.5 463,-363.5 463,-357.5 463,-357.5 463,-185.5 463,-185.5 463,-179.5 469,-173.5 475,-173.5"/>
<text text-anchor="middle" x="550" y="-354.3" font-family="Times,serif" font-size="14.00" fill="#000000">Profile</text>
<polyline fill="none" stroke="#000000" points="463,-346.5 637,-346.5 "/>
<text text-anchor="start" x="471" y="-331.3" font-family="Times,serif" font-size="14.00" fill="#000000">id :INTEGER</text>
<text text-anchor="start" x="471" y="-316.3" font-family="Times,serif" font-size="14.00" fill="#000000">name :varchar</text>
<text text-anchor="start" x="471" y="-301.3" font-family="Times,serif" font-size="14.00" fill="#000000">phone :integer</text>
<text text-anchor="start" x="471" y="-286.3" font-family="Times,serif" font-size="14.00" fill="#000000">address :varchar</text>
<text text-anchor="start" x="471" y="-271.3" font-family="Times,serif" font-size="14.00" fill="#000000">created_at :datetime</text>
<text text-anchor="start" x="471" y="-256.3" font-family="Times,serif" font-size="14.00" fill="#000000">updated_at :datetime</text>
<text text-anchor="start" x="471" y="-241.3" font-family="Times,serif" font-size="14.00" fill="#000000">user_id :integer</text>
<text text-anchor="start" x="471" y="-226.3" font-family="Times,serif" font-size="14.00" fill="#000000">avatar_file_name :varchar</text>
<text text-anchor="start" x="471" y="-211.3" font-family="Times,serif" font-size="14.00" fill="#000000">avatar_content_type :varchar</text>
<text text-anchor="start" x="471" y="-196.3" font-family="Times,serif" font-size="14.00" fill="#000000">avatar_file_size :integer</text>
<text text-anchor="start" x="471" y="-181.3" font-family="Times,serif" font-size="14.00" fill="#000000">avatar_updated_at :datetime</text>
</g>
<!-- Post -->
<g id="node4" class="node">
<title>Post</title>
<path fill="none" stroke="#000000" d="M680.5,-.5C680.5,-.5 787.5,-.5 787.5,-.5 793.5,-.5 799.5,-6.5 799.5,-12.5 799.5,-12.5 799.5,-124.5 799.5,-124.5 799.5,-130.5 793.5,-136.5 787.5,-136.5 787.5,-136.5 680.5,-136.5 680.5,-136.5 674.5,-136.5 668.5,-130.5 668.5,-124.5 668.5,-124.5 668.5,-12.5 668.5,-12.5 668.5,-6.5 674.5,-.5 680.5,-.5"/>
<text text-anchor="middle" x="734" y="-121.3" font-family="Times,serif" font-size="14.00" fill="#000000">Post</text>
<polyline fill="none" stroke="#000000" points="668.5,-113.5 799.5,-113.5 "/>
<text text-anchor="start" x="676.5" y="-98.3" font-family="Times,serif" font-size="14.00" fill="#000000">id :INTEGER</text>
<text text-anchor="start" x="676.5" y="-83.3" font-family="Times,serif" font-size="14.00" fill="#000000">body :varchar</text>
<text text-anchor="start" x="676.5" y="-68.3" font-family="Times,serif" font-size="14.00" fill="#000000">user_id :integer</text>
<text text-anchor="start" x="676.5" y="-53.3" font-family="Times,serif" font-size="14.00" fill="#000000">product_id :integer</text>
<text text-anchor="start" x="676.5" y="-38.3" font-family="Times,serif" font-size="14.00" fill="#000000">star :integer</text>
<text text-anchor="start" x="676.5" y="-23.3" font-family="Times,serif" font-size="14.00" fill="#000000">created_at :datetime</text>
<text text-anchor="start" x="676.5" y="-8.3" font-family="Times,serif" font-size="14.00" fill="#000000">updated_at :datetime</text>
</g>
<!-- Categorie -->
<g id="node5" class="node">
<title>Categorie</title>
<path fill="none" stroke="#000000" d="M680.5,-436.5C680.5,-436.5 787.5,-436.5 787.5,-436.5 793.5,-436.5 799.5,-442.5 799.5,-448.5 799.5,-448.5 799.5,-515.5 799.5,-515.5 799.5,-521.5 793.5,-527.5 787.5,-527.5 787.5,-527.5 680.5,-527.5 680.5,-527.5 674.5,-527.5 668.5,-521.5 668.5,-515.5 668.5,-515.5 668.5,-448.5 668.5,-448.5 668.5,-442.5 674.5,-436.5 680.5,-436.5"/>
<text text-anchor="middle" x="734" y="-512.3" font-family="Times,serif" font-size="14.00" fill="#000000">Categorie</text>
<polyline fill="none" stroke="#000000" points="668.5,-504.5 799.5,-504.5 "/>
<text text-anchor="start" x="676.5" y="-489.3" font-family="Times,serif" font-size="14.00" fill="#000000">id :INTEGER</text>
<text text-anchor="start" x="676.5" y="-474.3" font-family="Times,serif" font-size="14.00" fill="#000000">name :varchar</text>
<text text-anchor="start" x="676.5" y="-459.3" font-family="Times,serif" font-size="14.00" fill="#000000">created_at :datetime</text>
<text text-anchor="start" x="676.5" y="-444.3" font-family="Times,serif" font-size="14.00" fill="#000000">updated_at :datetime</text>
</g>
<!-- Product -->
<g id="node9" class="node">
<title>Product</title>
<path fill="none" stroke="#000000" d="M680.5,-196C680.5,-196 787.5,-196 787.5,-196 793.5,-196 799.5,-202 799.5,-208 799.5,-208 799.5,-335 799.5,-335 799.5,-341 793.5,-347 787.5,-347 787.5,-347 680.5,-347 680.5,-347 674.5,-347 668.5,-341 668.5,-335 668.5,-335 668.5,-208 668.5,-208 668.5,-202 674.5,-196 680.5,-196"/>
<text text-anchor="middle" x="734" y="-331.8" font-family="Times,serif" font-size="14.00" fill="#000000">Product</text>
<polyline fill="none" stroke="#000000" points="668.5,-324 799.5,-324 "/>
<text text-anchor="start" x="676.5" y="-308.8" font-family="Times,serif" font-size="14.00" fill="#000000">id :INTEGER</text>
<text text-anchor="start" x="676.5" y="-293.8" font-family="Times,serif" font-size="14.00" fill="#000000">name :varchar</text>
<text text-anchor="start" x="676.5" y="-278.8" font-family="Times,serif" font-size="14.00" fill="#000000">description :varchar</text>
<text text-anchor="start" x="676.5" y="-263.8" font-family="Times,serif" font-size="14.00" fill="#000000">categorie_id :integer</text>
<text text-anchor="start" x="676.5" y="-248.8" font-family="Times,serif" font-size="14.00" fill="#000000">price :float</text>
<text text-anchor="start" x="676.5" y="-233.8" font-family="Times,serif" font-size="14.00" fill="#000000">pcount :integer</text>
<text text-anchor="start" x="676.5" y="-218.8" font-family="Times,serif" font-size="14.00" fill="#000000">created_at :datetime</text>
<text text-anchor="start" x="676.5" y="-203.8" font-family="Times,serif" font-size="14.00" fill="#000000">updated_at :datetime</text>
</g>
<!-- Categorie&#45;&gt;Product -->
<g id="edge1" class="edge">
<title>Categorie&#45;&gt;Product</title>
<path fill="none" stroke="#19cdc6" d="M734,-428.191C734,-406.6855 734,-381.3804 734,-357.453"/>
<ellipse fill="none" stroke="#19cdc6" cx="734" cy="-432.3246" rx="4" ry="4"/>
<polygon fill="#19cdc6" stroke="#19cdc6" points="734.0001,-357.2978 738.5,-347.2978 734,-352.2978 734,-347.2978 734,-347.2978 734,-347.2978 734,-352.2978 729.5,-347.2979 734.0001,-357.2978 734.0001,-357.2978"/>
</g>
<!-- ApplicationRecord -->
<g id="node6" class="node">
<title>ApplicationRecord</title>
<ellipse fill="none" stroke="#000000" cx="895" cy="-482" rx="77.1866" ry="18"/>
<text text-anchor="middle" x="895" y="-478.3" font-family="Times,serif" font-size="14.00" fill="#000000">ApplicationRecord</text>
</g>
<!-- Question -->
<g id="node7" class="node">
<title>Question</title>
<path fill="none" stroke="#000000" d="M1002.5,-421.5C1002.5,-421.5 1109.5,-421.5 1109.5,-421.5 1115.5,-421.5 1121.5,-427.5 1121.5,-433.5 1121.5,-433.5 1121.5,-530.5 1121.5,-530.5 1121.5,-536.5 1115.5,-542.5 1109.5,-542.5 1109.5,-542.5 1002.5,-542.5 1002.5,-542.5 996.5,-542.5 990.5,-536.5 990.5,-530.5 990.5,-530.5 990.5,-433.5 990.5,-433.5 990.5,-427.5 996.5,-421.5 1002.5,-421.5"/>
<text text-anchor="middle" x="1056" y="-527.3" font-family="Times,serif" font-size="14.00" fill="#000000">Question</text>
<polyline fill="none" stroke="#000000" points="990.5,-519.5 1121.5,-519.5 "/>
<text text-anchor="start" x="998.5" y="-504.3" font-family="Times,serif" font-size="14.00" fill="#000000">id :INTEGER</text>
<text text-anchor="start" x="998.5" y="-489.3" font-family="Times,serif" font-size="14.00" fill="#000000">body :varchar</text>
<text text-anchor="start" x="998.5" y="-474.3" font-family="Times,serif" font-size="14.00" fill="#000000">user_id :integer</text>
<text text-anchor="start" x="998.5" y="-459.3" font-family="Times,serif" font-size="14.00" fill="#000000">product_id :integer</text>
<text text-anchor="start" x="998.5" y="-444.3" font-family="Times,serif" font-size="14.00" fill="#000000">created_at :datetime</text>
<text text-anchor="start" x="998.5" y="-429.3" font-family="Times,serif" font-size="14.00" fill="#000000">updated_at :datetime</text>
</g>
<!-- Order -->
<g id="node8" class="node">
<title>Order</title>
<path fill="none" stroke="#000000" d="M1151.5,-414C1151.5,-414 1258.5,-414 1258.5,-414 1264.5,-414 1270.5,-420 1270.5,-426 1270.5,-426 1270.5,-538 1270.5,-538 1270.5,-544 1264.5,-550 1258.5,-550 1258.5,-550 1151.5,-550 1151.5,-550 1145.5,-550 1139.5,-544 1139.5,-538 1139.5,-538 1139.5,-426 1139.5,-426 1139.5,-420 1145.5,-414 1151.5,-414"/>
<text text-anchor="middle" x="1205" y="-534.8" font-family="Times,serif" font-size="14.00" fill="#000000">Order</text>
<polyline fill="none" stroke="#000000" points="1139.5,-527 1270.5,-527 "/>
<text text-anchor="start" x="1147.5" y="-511.8" font-family="Times,serif" font-size="14.00" fill="#000000">id :INTEGER</text>
<text text-anchor="start" x="1147.5" y="-496.8" font-family="Times,serif" font-size="14.00" fill="#000000">product_id :integer</text>
<text text-anchor="start" x="1147.5" y="-481.8" font-family="Times,serif" font-size="14.00" fill="#000000">user_id :integer</text>
<text text-anchor="start" x="1147.5" y="-466.8" font-family="Times,serif" font-size="14.00" fill="#000000">ordercount :float</text>
<text text-anchor="start" x="1147.5" y="-451.8" font-family="Times,serif" font-size="14.00" fill="#000000">comment :varchar</text>
<text text-anchor="start" x="1147.5" y="-436.8" font-family="Times,serif" font-size="14.00" fill="#000000">created_at :datetime</text>
<text text-anchor="start" x="1147.5" y="-421.8" font-family="Times,serif" font-size="14.00" fill="#000000">updated_at :datetime</text>
</g>
<!-- Product&#45;&gt;Post -->
<g id="edge2" class="edge">
<title>Product&#45;&gt;Post</title>
<path fill="none" stroke="#01dbb0" d="M734,-187.659C734,-174.1628 734,-160.2368 734,-146.8754"/>
<ellipse fill="none" stroke="#01dbb0" cx="734" cy="-191.9103" rx="4" ry="4"/>
<polygon fill="#01dbb0" stroke="#01dbb0" points="734.0001,-146.7845 738.5,-136.7844 734,-141.7845 734,-136.7845 734,-136.7845 734,-136.7845 734,-141.7845 729.5,-136.7845 734.0001,-146.7845 734.0001,-146.7845"/>
</g>
<!-- User -->
<g id="node10" class="node">
<title>User</title>
<path fill="none" stroke="#000000" d="M462,-406.5C462,-406.5 638,-406.5 638,-406.5 644,-406.5 650,-412.5 650,-418.5 650,-418.5 650,-545.5 650,-545.5 650,-551.5 644,-557.5 638,-557.5 638,-557.5 462,-557.5 462,-557.5 456,-557.5 450,-551.5 450,-545.5 450,-545.5 450,-418.5 450,-418.5 450,-412.5 456,-406.5 462,-406.5"/>
<text text-anchor="middle" x="550" y="-542.3" font-family="Times,serif" font-size="14.00" fill="#000000">User</text>
<polyline fill="none" stroke="#000000" points="450,-534.5 650,-534.5 "/>
<text text-anchor="start" x="458" y="-519.3" font-family="Times,serif" font-size="14.00" fill="#000000">id :INTEGER</text>
<text text-anchor="start" x="458" y="-504.3" font-family="Times,serif" font-size="14.00" fill="#000000">email :varchar</text>
<text text-anchor="start" x="458" y="-489.3" font-family="Times,serif" font-size="14.00" fill="#000000">encrypted_password :varchar</text>
<text text-anchor="start" x="458" y="-474.3" font-family="Times,serif" font-size="14.00" fill="#000000">reset_password_token :varchar</text>
<text text-anchor="start" x="458" y="-459.3" font-family="Times,serif" font-size="14.00" fill="#000000">reset_password_sent_at :datetime</text>
<text text-anchor="start" x="458" y="-444.3" font-family="Times,serif" font-size="14.00" fill="#000000">remember_created_at :datetime</text>
<text text-anchor="start" x="458" y="-429.3" font-family="Times,serif" font-size="14.00" fill="#000000">created_at :datetime</text>
<text text-anchor="start" x="458" y="-414.3" font-family="Times,serif" font-size="14.00" fill="#000000">updated_at :datetime</text>
</g>
<!-- User&#45;&gt;Profile -->
<g id="edge3" class="edge">
<title>User&#45;&gt;Profile</title>
<path fill="none" stroke="#63d48e" d="M550,-398.134C550,-391.3973 550,-384.5385 550,-377.6744"/>
<ellipse fill="none" stroke="#63d48e" cx="550" cy="-402.3021" rx="4" ry="4"/>
<ellipse fill="#63d48e" stroke="#63d48e" cx="550" cy="-373.6213" rx="4" ry="4"/>
</g>
</g>
</svg>
