<?xml version="1.0" encoding="UTF-8" standalone="no"?>
<!DOCTYPE svg PUBLIC "-//W3C//DTD SVG 1.1//EN"
 "http://www.w3.org/Graphics/SVG/1.1/DTD/svg11.dtd">
<!-- Generated by graphviz version 2.40.1 (20161225.0304)
 -->
<!-- Title: models_diagram Pages: 1 -->
<svg width="1769pt" height="205pt"
 viewBox="0.00 0.00 1769.00 205.00" xmlns="http://www.w3.org/2000/svg" xmlns:xlink="http://www.w3.org/1999/xlink">
<g id="graph0" class="graph" transform="scale(1 1) rotate(0) translate(4 201)">
<title>models_diagram</title>
<polygon fill="transparent" stroke="transparent" points="-4,4 -4,-201 1765,-201 1765,4 -4,4"/>
<!-- _diagram_info -->
<g id="node1" class="node">
<title>_diagram_info</title>
<text text-anchor="start" x="8" y="-123.1" font-family="Times,serif" font-size="13.00" fill="#000000">Models diagram</text>
<text text-anchor="start" x="8" y="-109.1" font-family="Times,serif" font-size="13.00" fill="#000000">Date: Dec 11 2018 &#45; 14:08</text>
<text text-anchor="start" x="8" y="-95.1" font-family="Times,serif" font-size="13.00" fill="#000000">Migration version: 20181211113402</text>
<text text-anchor="start" x="8" y="-81.1" font-family="Times,serif" font-size="13.00" fill="#000000">Generated by RailRoady 1.5.3</text>
<text text-anchor="start" x="8" y="-67.1" font-family="Times,serif" font-size="13.00" fill="#000000">http://railroady.prestonlee.com</text>
</g>
<!-- AdminUser -->
<g id="node2" class="node">
<title>AdminUser</title>
<path fill="none" stroke="#000000" d="M244,-23C244,-23 420,-23 420,-23 426,-23 432,-29 432,-35 432,-35 432,-162 432,-162 432,-168 426,-174 420,-174 420,-174 244,-174 244,-174 238,-174 232,-168 232,-162 232,-162 232,-35 232,-35 232,-29 238,-23 244,-23"/>
<text text-anchor="middle" x="332" y="-158.8" font-family="Times,serif" font-size="14.00" fill="#000000">AdminUser</text>
<polyline fill="none" stroke="#000000" points="232,-151 432,-151 "/>
<text text-anchor="start" x="240" y="-135.8" font-family="Times,serif" font-size="14.00" fill="#000000">id :INTEGER</text>
<text text-anchor="start" x="240" y="-120.8" font-family="Times,serif" font-size="14.00" fill="#000000">email :varchar</text>
<text text-anchor="start" x="240" y="-105.8" font-family="Times,serif" font-size="14.00" fill="#000000">encrypted_password :varchar</text>
<text text-anchor="start" x="240" y="-90.8" font-family="Times,serif" font-size="14.00" fill="#000000">reset_password_token :varchar</text>
<text text-anchor="start" x="240" y="-75.8" font-family="Times,serif" font-size="14.00" fill="#000000">reset_password_sent_at :datetime</text>
<text text-anchor="start" x="240" y="-60.8" font-family="Times,serif" font-size="14.00" fill="#000000">remember_created_at :datetime</text>
<text text-anchor="start" x="240" y="-45.8" font-family="Times,serif" font-size="14.00" fill="#000000">created_at :datetime</text>
<text text-anchor="start" x="240" y="-30.8" font-family="Times,serif" font-size="14.00" fill="#000000">updated_at :datetime</text>
</g>
<!-- Profile -->
<g id="node3" class="node">
<title>Profile</title>
<path fill="none" stroke="#000000" d="M462,-.5C462,-.5 612,-.5 612,-.5 618,-.5 624,-6.5 624,-12.5 624,-12.5 624,-184.5 624,-184.5 624,-190.5 618,-196.5 612,-196.5 612,-196.5 462,-196.5 462,-196.5 456,-196.5 450,-190.5 450,-184.5 450,-184.5 450,-12.5 450,-12.5 450,-6.5 456,-.5 462,-.5"/>
<text text-anchor="middle" x="537" y="-181.3" font-family="Times,serif" font-size="14.00" fill="#000000">Profile</text>
<polyline fill="none" stroke="#000000" points="450,-173.5 624,-173.5 "/>
<text text-anchor="start" x="458" y="-158.3" font-family="Times,serif" font-size="14.00" fill="#000000">id :INTEGER</text>
<text text-anchor="start" x="458" y="-143.3" font-family="Times,serif" font-size="14.00" fill="#000000">name :varchar</text>
<text text-anchor="start" x="458" y="-128.3" font-family="Times,serif" font-size="14.00" fill="#000000">phone :integer</text>
<text text-anchor="start" x="458" y="-113.3" font-family="Times,serif" font-size="14.00" fill="#000000">address :varchar</text>
<text text-anchor="start" x="458" y="-98.3" font-family="Times,serif" font-size="14.00" fill="#000000">created_at :datetime</text>
<text text-anchor="start" x="458" y="-83.3" font-family="Times,serif" font-size="14.00" fill="#000000">updated_at :datetime</text>
<text text-anchor="start" x="458" y="-68.3" font-family="Times,serif" font-size="14.00" fill="#000000">user_id :integer</text>
<text text-anchor="start" x="458" y="-53.3" font-family="Times,serif" font-size="14.00" fill="#000000">avatar_file_name :varchar</text>
<text text-anchor="start" x="458" y="-38.3" font-family="Times,serif" font-size="14.00" fill="#000000">avatar_content_type :varchar</text>
<text text-anchor="start" x="458" y="-23.3" font-family="Times,serif" font-size="14.00" fill="#000000">avatar_file_size :integer</text>
<text text-anchor="start" x="458" y="-8.3" font-family="Times,serif" font-size="14.00" fill="#000000">avatar_updated_at :datetime</text>
</g>
<!-- Post -->
<g id="node4" class="node">
<title>Post</title>
<path fill="none" stroke="#000000" d="M654.5,-30.5C654.5,-30.5 761.5,-30.5 761.5,-30.5 767.5,-30.5 773.5,-36.5 773.5,-42.5 773.5,-42.5 773.5,-154.5 773.5,-154.5 773.5,-160.5 767.5,-166.5 761.5,-166.5 761.5,-166.5 654.5,-166.5 654.5,-166.5 648.5,-166.5 642.5,-160.5 642.5,-154.5 642.5,-154.5 642.5,-42.5 642.5,-42.5 642.5,-36.5 648.5,-30.5 654.5,-30.5"/>
<text text-anchor="middle" x="708" y="-151.3" font-family="Times,serif" font-size="14.00" fill="#000000">Post</text>
<polyline fill="none" stroke="#000000" points="642.5,-143.5 773.5,-143.5 "/>
<text text-anchor="start" x="650.5" y="-128.3" font-family="Times,serif" font-size="14.00" fill="#000000">id :INTEGER</text>
<text text-anchor="start" x="650.5" y="-113.3" font-family="Times,serif" font-size="14.00" fill="#000000">body :varchar</text>
<text text-anchor="start" x="650.5" y="-98.3" font-family="Times,serif" font-size="14.00" fill="#000000">user_id :integer</text>
<text text-anchor="start" x="650.5" y="-83.3" font-family="Times,serif" font-size="14.00" fill="#000000">product_id :integer</text>
<text text-anchor="start" x="650.5" y="-68.3" font-family="Times,serif" font-size="14.00" fill="#000000">star :integer</text>
<text text-anchor="start" x="650.5" y="-53.3" font-family="Times,serif" font-size="14.00" fill="#000000">created_at :datetime</text>
<text text-anchor="start" x="650.5" y="-38.3" font-family="Times,serif" font-size="14.00" fill="#000000">updated_at :datetime</text>
</g>
<!-- Categorie -->
<g id="node5" class="node">
<title>Categorie</title>
<path fill="none" stroke="#000000" d="M803.5,-53C803.5,-53 910.5,-53 910.5,-53 916.5,-53 922.5,-59 922.5,-65 922.5,-65 922.5,-132 922.5,-132 922.5,-138 916.5,-144 910.5,-144 910.5,-144 803.5,-144 803.5,-144 797.5,-144 791.5,-138 791.5,-132 791.5,-132 791.5,-65 791.5,-65 791.5,-59 797.5,-53 803.5,-53"/>
<text text-anchor="middle" x="857" y="-128.8" font-family="Times,serif" font-size="14.00" fill="#000000">Categorie</text>
<polyline fill="none" stroke="#000000" points="791.5,-121 922.5,-121 "/>
<text text-anchor="start" x="799.5" y="-105.8" font-family="Times,serif" font-size="14.00" fill="#000000">id :INTEGER</text>
<text text-anchor="start" x="799.5" y="-90.8" font-family="Times,serif" font-size="14.00" fill="#000000">name :varchar</text>
<text text-anchor="start" x="799.5" y="-75.8" font-family="Times,serif" font-size="14.00" fill="#000000">created_at :datetime</text>
<text text-anchor="start" x="799.5" y="-60.8" font-family="Times,serif" font-size="14.00" fill="#000000">updated_at :datetime</text>
</g>
<!-- ApplicationRecord -->
<g id="node6" class="node">
<title>ApplicationRecord</title>
<ellipse fill="none" stroke="#000000" cx="1018" cy="-98.5" rx="77.1866" ry="18"/>
<text text-anchor="middle" x="1018" y="-94.8" font-family="Times,serif" font-size="14.00" fill="#000000">ApplicationRecord</text>
</g>
<!-- Question -->
<g id="node7" class="node">
<title>Question</title>
<path fill="none" stroke="#000000" d="M1125.5,-38C1125.5,-38 1232.5,-38 1232.5,-38 1238.5,-38 1244.5,-44 1244.5,-50 1244.5,-50 1244.5,-147 1244.5,-147 1244.5,-153 1238.5,-159 1232.5,-159 1232.5,-159 1125.5,-159 1125.5,-159 1119.5,-159 1113.5,-153 1113.5,-147 1113.5,-147 1113.5,-50 1113.5,-50 1113.5,-44 1119.5,-38 1125.5,-38"/>
<text text-anchor="middle" x="1179" y="-143.8" font-family="Times,serif" font-size="14.00" fill="#000000">Question</text>
<polyline fill="none" stroke="#000000" points="1113.5,-136 1244.5,-136 "/>
<text text-anchor="start" x="1121.5" y="-120.8" font-family="Times,serif" font-size="14.00" fill="#000000">id :INTEGER</text>
<text text-anchor="start" x="1121.5" y="-105.8" font-family="Times,serif" font-size="14.00" fill="#000000">body :varchar</text>
<text text-anchor="start" x="1121.5" y="-90.8" font-family="Times,serif" font-size="14.00" fill="#000000">user_id :integer</text>
<text text-anchor="start" x="1121.5" y="-75.8" font-family="Times,serif" font-size="14.00" fill="#000000">product_id :integer</text>
<text text-anchor="start" x="1121.5" y="-60.8" font-family="Times,serif" font-size="14.00" fill="#000000">created_at :datetime</text>
<text text-anchor="start" x="1121.5" y="-45.8" font-family="Times,serif" font-size="14.00" fill="#000000">updated_at :datetime</text>
</g>
<!-- Order -->
<g id="node8" class="node">
<title>Order</title>
<path fill="none" stroke="#000000" d="M1274.5,-30.5C1274.5,-30.5 1381.5,-30.5 1381.5,-30.5 1387.5,-30.5 1393.5,-36.5 1393.5,-42.5 1393.5,-42.5 1393.5,-154.5 1393.5,-154.5 1393.5,-160.5 1387.5,-166.5 1381.5,-166.5 1381.5,-166.5 1274.5,-166.5 1274.5,-166.5 1268.5,-166.5 1262.5,-160.5 1262.5,-154.5 1262.5,-154.5 1262.5,-42.5 1262.5,-42.5 1262.5,-36.5 1268.5,-30.5 1274.5,-30.5"/>
<text text-anchor="middle" x="1328" y="-151.3" font-family="Times,serif" font-size="14.00" fill="#000000">Order</text>
<polyline fill="none" stroke="#000000" points="1262.5,-143.5 1393.5,-143.5 "/>
<text text-anchor="start" x="1270.5" y="-128.3" font-family="Times,serif" font-size="14.00" fill="#000000">id :INTEGER</text>
<text text-anchor="start" x="1270.5" y="-113.3" font-family="Times,serif" font-size="14.00" fill="#000000">product_id :integer</text>
<text text-anchor="start" x="1270.5" y="-98.3" font-family="Times,serif" font-size="14.00" fill="#000000">user_id :integer</text>
<text text-anchor="start" x="1270.5" y="-83.3" font-family="Times,serif" font-size="14.00" fill="#000000">ordercount :float</text>
<text text-anchor="start" x="1270.5" y="-68.3" font-family="Times,serif" font-size="14.00" fill="#000000">comment :varchar</text>
<text text-anchor="start" x="1270.5" y="-53.3" font-family="Times,serif" font-size="14.00" fill="#000000">created_at :datetime</text>
<text text-anchor="start" x="1270.5" y="-38.3" font-family="Times,serif" font-size="14.00" fill="#000000">updated_at :datetime</text>
</g>
<!-- Product -->
<g id="node9" class="node">
<title>Product</title>
<path fill="none" stroke="#000000" d="M1423.5,-23C1423.5,-23 1530.5,-23 1530.5,-23 1536.5,-23 1542.5,-29 1542.5,-35 1542.5,-35 1542.5,-162 1542.5,-162 1542.5,-168 1536.5,-174 1530.5,-174 1530.5,-174 1423.5,-174 1423.5,-174 1417.5,-174 1411.5,-168 1411.5,-162 1411.5,-162 1411.5,-35 1411.5,-35 1411.5,-29 1417.5,-23 1423.5,-23"/>
<text text-anchor="middle" x="1477" y="-158.8" font-family="Times,serif" font-size="14.00" fill="#000000">Product</text>
<polyline fill="none" stroke="#000000" points="1411.5,-151 1542.5,-151 "/>
<text text-anchor="start" x="1419.5" y="-135.8" font-family="Times,serif" font-size="14.00" fill="#000000">id :INTEGER</text>
<text text-anchor="start" x="1419.5" y="-120.8" font-family="Times,serif" font-size="14.00" fill="#000000">name :varchar</text>
<text text-anchor="start" x="1419.5" y="-105.8" font-family="Times,serif" font-size="14.00" fill="#000000">description :varchar</text>
<text text-anchor="start" x="1419.5" y="-90.8" font-family="Times,serif" font-size="14.00" fill="#000000">categorie_id :integer</text>
<text text-anchor="start" x="1419.5" y="-75.8" font-family="Times,serif" font-size="14.00" fill="#000000">price :float</text>
<text text-anchor="start" x="1419.5" y="-60.8" font-family="Times,serif" font-size="14.00" fill="#000000">pcount :integer</text>
<text text-anchor="start" x="1419.5" y="-45.8" font-family="Times,serif" font-size="14.00" fill="#000000">created_at :datetime</text>
<text text-anchor="start" x="1419.5" y="-30.8" font-family="Times,serif" font-size="14.00" fill="#000000">updated_at :datetime</text>
</g>
<!-- User -->
<g id="node10" class="node">
<title>User</title>
<path fill="none" stroke="#000000" d="M1573,-23C1573,-23 1749,-23 1749,-23 1755,-23 1761,-29 1761,-35 1761,-35 1761,-162 1761,-162 1761,-168 1755,-174 1749,-174 1749,-174 1573,-174 1573,-174 1567,-174 1561,-168 1561,-162 1561,-162 1561,-35 1561,-35 1561,-29 1567,-23 1573,-23"/>
<text text-anchor="middle" x="1661" y="-158.8" font-family="Times,serif" font-size="14.00" fill="#000000">User</text>
<polyline fill="none" stroke="#000000" points="1561,-151 1761,-151 "/>
<text text-anchor="start" x="1569" y="-135.8" font-family="Times,serif" font-size="14.00" fill="#000000">id :INTEGER</text>
<text text-anchor="start" x="1569" y="-120.8" font-family="Times,serif" font-size="14.00" fill="#000000">email :varchar</text>
<text text-anchor="start" x="1569" y="-105.8" font-family="Times,serif" font-size="14.00" fill="#000000">encrypted_password :varchar</text>
<text text-anchor="start" x="1569" y="-90.8" font-family="Times,serif" font-size="14.00" fill="#000000">reset_password_token :varchar</text>
<text text-anchor="start" x="1569" y="-75.8" font-family="Times,serif" font-size="14.00" fill="#000000">reset_password_sent_at :datetime</text>
<text text-anchor="start" x="1569" y="-60.8" font-family="Times,serif" font-size="14.00" fill="#000000">remember_created_at :datetime</text>
<text text-anchor="start" x="1569" y="-45.8" font-family="Times,serif" font-size="14.00" fill="#000000">created_at :datetime</text>
<text text-anchor="start" x="1569" y="-30.8" font-family="Times,serif" font-size="14.00" fill="#000000">updated_at :datetime</text>
</g>
</g>
</svg>
