<?xml version="1.0" encoding="UTF-8" standalone="no"?>
<!DOCTYPE svg PUBLIC "-//W3C//DTD SVG 1.1//EN"
 "http://www.w3.org/Graphics/SVG/1.1/DTD/svg11.dtd">
<!-- Generated by graphviz version 2.40.1 (20161225.0304)
 -->
<!-- Title: models_diagram Pages: 1 -->
<svg width="912pt" height="551pt"
 viewBox="0.00 0.00 911.50 551.00" xmlns="http://www.w3.org/2000/svg" xmlns:xlink="http://www.w3.org/1999/xlink">
<g id="graph0" class="graph" transform="scale(1 1) rotate(0) translate(4 547)">
<title>models_diagram</title>
<polygon fill="transparent" stroke="transparent" points="-4,4 -4,-547 907.5,-547 907.5,4 -4,4"/>
<!-- _diagram_info -->
<g id="node1" class="node">
<title>_diagram_info</title>
<text text-anchor="start" x="8" y="-491.6" font-family="Times,serif" font-size="13.00" fill="#000000">Models diagram</text>
<text text-anchor="start" x="8" y="-477.6" font-family="Times,serif" font-size="13.00" fill="#000000">Date: Dec 17 2018 &#45; 21:59</text>
<text text-anchor="start" x="8" y="-463.6" font-family="Times,serif" font-size="13.00" fill="#000000">Migration version: 20181216114206</text>
<text text-anchor="start" x="8" y="-449.6" font-family="Times,serif" font-size="13.00" fill="#000000">Generated by RailRoady 1.5.3</text>
<text text-anchor="start" x="8" y="-435.6" font-family="Times,serif" font-size="13.00" fill="#000000">http://railroady.prestonlee.com</text>
</g>
<!-- AdminUser -->
<g id="node2" class="node">
<title>AdminUser</title>
<path fill="none" stroke="#000000" d="M244,-391.5C244,-391.5 420,-391.5 420,-391.5 426,-391.5 432,-397.5 432,-403.5 432,-403.5 432,-530.5 432,-530.5 432,-536.5 426,-542.5 420,-542.5 420,-542.5 244,-542.5 244,-542.5 238,-542.5 232,-536.5 232,-530.5 232,-530.5 232,-403.5 232,-403.5 232,-397.5 238,-391.5 244,-391.5"/>
<text text-anchor="middle" x="332" y="-527.3" font-family="Times,serif" font-size="14.00" fill="#000000">AdminUser</text>
<polyline fill="none" stroke="#000000" points="232,-519.5 432,-519.5 "/>
<text text-anchor="start" x="240" y="-504.3" font-family="Times,serif" font-size="14.00" fill="#000000">id :INTEGER</text>
<text text-anchor="start" x="240" y="-489.3" font-family="Times,serif" font-size="14.00" fill="#000000">email :varchar</text>
<text text-anchor="start" x="240" y="-474.3" font-family="Times,serif" font-size="14.00" fill="#000000">encrypted_password :varchar</text>
<text text-anchor="start" x="240" y="-459.3" font-family="Times,serif" font-size="14.00" fill="#000000">reset_password_token :varchar</text>
<text text-anchor="start" x="240" y="-444.3" font-family="Times,serif" font-size="14.00" fill="#000000">reset_password_sent_at :datetime</text>
<text text-anchor="start" x="240" y="-429.3" font-family="Times,serif" font-size="14.00" fill="#000000">remember_created_at :datetime</text>
<text text-anchor="start" x="240" y="-414.3" font-family="Times,serif" font-size="14.00" fill="#000000">created_at :datetime</text>
<text text-anchor="start" x="240" y="-399.3" font-family="Times,serif" font-size="14.00" fill="#000000">updated_at :datetime</text>
</g>
<!-- Profile -->
<g id="node3" class="node">
<title>Profile</title>
<path fill="none" stroke="#000000" d="M164.5,-.5C164.5,-.5 271.5,-.5 271.5,-.5 277.5,-.5 283.5,-6.5 283.5,-12.5 283.5,-12.5 283.5,-139.5 283.5,-139.5 283.5,-145.5 277.5,-151.5 271.5,-151.5 271.5,-151.5 164.5,-151.5 164.5,-151.5 158.5,-151.5 152.5,-145.5 152.5,-139.5 152.5,-139.5 152.5,-12.5 152.5,-12.5 152.5,-6.5 158.5,-.5 164.5,-.5"/>
<text text-anchor="middle" x="218" y="-136.3" font-family="Times,serif" font-size="14.00" fill="#000000">Profile</text>
<polyline fill="none" stroke="#000000" points="152.5,-128.5 283.5,-128.5 "/>
<text text-anchor="start" x="160.5" y="-113.3" font-family="Times,serif" font-size="14.00" fill="#000000">id :integer</text>
<text text-anchor="start" x="160.5" y="-98.3" font-family="Times,serif" font-size="14.00" fill="#000000">name :varchar</text>
<text text-anchor="start" x="160.5" y="-83.3" font-family="Times,serif" font-size="14.00" fill="#000000">phone :integer</text>
<text text-anchor="start" x="160.5" y="-68.3" font-family="Times,serif" font-size="14.00" fill="#000000">address :varchar</text>
<text text-anchor="start" x="160.5" y="-53.3" font-family="Times,serif" font-size="14.00" fill="#000000">created_at :datetime</text>
<text text-anchor="start" x="160.5" y="-38.3" font-family="Times,serif" font-size="14.00" fill="#000000">updated_at :datetime</text>
<text text-anchor="start" x="160.5" y="-23.3" font-family="Times,serif" font-size="14.00" fill="#000000">user_id :integer</text>
<text text-anchor="start" x="160.5" y="-8.3" font-family="Times,serif" font-size="14.00" fill="#000000">avatar :varchar</text>
</g>
<!-- Post -->
<g id="node4" class="node">
<title>Post</title>
<path fill="none" stroke="#000000" d="M462.5,-8C462.5,-8 569.5,-8 569.5,-8 575.5,-8 581.5,-14 581.5,-20 581.5,-20 581.5,-132 581.5,-132 581.5,-138 575.5,-144 569.5,-144 569.5,-144 462.5,-144 462.5,-144 456.5,-144 450.5,-138 450.5,-132 450.5,-132 450.5,-20 450.5,-20 450.5,-14 456.5,-8 462.5,-8"/>
<text text-anchor="middle" x="516" y="-128.8" font-family="Times,serif" font-size="14.00" fill="#000000">Post</text>
<polyline fill="none" stroke="#000000" points="450.5,-121 581.5,-121 "/>
<text text-anchor="start" x="458.5" y="-105.8" font-family="Times,serif" font-size="14.00" fill="#000000">id :INTEGER</text>
<text text-anchor="start" x="458.5" y="-90.8" font-family="Times,serif" font-size="14.00" fill="#000000">body :varchar</text>
<text text-anchor="start" x="458.5" y="-75.8" font-family="Times,serif" font-size="14.00" fill="#000000">user_id :integer</text>
<text text-anchor="start" x="458.5" y="-60.8" font-family="Times,serif" font-size="14.00" fill="#000000">product_id :integer</text>
<text text-anchor="start" x="458.5" y="-45.8" font-family="Times,serif" font-size="14.00" fill="#000000">star :integer</text>
<text text-anchor="start" x="458.5" y="-30.8" font-family="Times,serif" font-size="14.00" fill="#000000">created_at :datetime</text>
<text text-anchor="start" x="458.5" y="-15.8" font-family="Times,serif" font-size="14.00" fill="#000000">updated_at :datetime</text>
</g>
<!-- Categorie -->
<g id="node5" class="node">
<title>Categorie</title>
<path fill="none" stroke="#000000" d="M462.5,-414C462.5,-414 569.5,-414 569.5,-414 575.5,-414 581.5,-420 581.5,-426 581.5,-426 581.5,-508 581.5,-508 581.5,-514 575.5,-520 569.5,-520 569.5,-520 462.5,-520 462.5,-520 456.5,-520 450.5,-514 450.5,-508 450.5,-508 450.5,-426 450.5,-426 450.5,-420 456.5,-414 462.5,-414"/>
<text text-anchor="middle" x="516" y="-504.8" font-family="Times,serif" font-size="14.00" fill="#000000">Categorie</text>
<polyline fill="none" stroke="#000000" points="450.5,-497 581.5,-497 "/>
<text text-anchor="start" x="458.5" y="-481.8" font-family="Times,serif" font-size="14.00" fill="#000000">id :INTEGER</text>
<text text-anchor="start" x="458.5" y="-466.8" font-family="Times,serif" font-size="14.00" fill="#000000">name :varchar</text>
<text text-anchor="start" x="458.5" y="-451.8" font-family="Times,serif" font-size="14.00" fill="#000000">created_at :datetime</text>
<text text-anchor="start" x="458.5" y="-436.8" font-family="Times,serif" font-size="14.00" fill="#000000">updated_at :datetime</text>
<text text-anchor="start" x="458.5" y="-421.8" font-family="Times,serif" font-size="14.00" fill="#000000">photo :varchar</text>
</g>
<!-- Product -->
<g id="node9" class="node">
<title>Product</title>
<path fill="none" stroke="#000000" d="M462.5,-188.5C462.5,-188.5 569.5,-188.5 569.5,-188.5 575.5,-188.5 581.5,-194.5 581.5,-200.5 581.5,-200.5 581.5,-342.5 581.5,-342.5 581.5,-348.5 575.5,-354.5 569.5,-354.5 569.5,-354.5 462.5,-354.5 462.5,-354.5 456.5,-354.5 450.5,-348.5 450.5,-342.5 450.5,-342.5 450.5,-200.5 450.5,-200.5 450.5,-194.5 456.5,-188.5 462.5,-188.5"/>
<text text-anchor="middle" x="516" y="-339.3" font-family="Times,serif" font-size="14.00" fill="#000000">Product</text>
<polyline fill="none" stroke="#000000" points="450.5,-331.5 581.5,-331.5 "/>
<text text-anchor="start" x="458.5" y="-316.3" font-family="Times,serif" font-size="14.00" fill="#000000">id :INTEGER</text>
<text text-anchor="start" x="458.5" y="-301.3" font-family="Times,serif" font-size="14.00" fill="#000000">name :varchar</text>
<text text-anchor="start" x="458.5" y="-286.3" font-family="Times,serif" font-size="14.00" fill="#000000">description :varchar</text>
<text text-anchor="start" x="458.5" y="-271.3" font-family="Times,serif" font-size="14.00" fill="#000000">categorie_id :integer</text>
<text text-anchor="start" x="458.5" y="-256.3" font-family="Times,serif" font-size="14.00" fill="#000000">price :float</text>
<text text-anchor="start" x="458.5" y="-241.3" font-family="Times,serif" font-size="14.00" fill="#000000">pcount :integer</text>
<text text-anchor="start" x="458.5" y="-226.3" font-family="Times,serif" font-size="14.00" fill="#000000">created_at :datetime</text>
<text text-anchor="start" x="458.5" y="-211.3" font-family="Times,serif" font-size="14.00" fill="#000000">updated_at :datetime</text>
<text text-anchor="start" x="458.5" y="-196.3" font-family="Times,serif" font-size="14.00" fill="#000000">images :varchar</text>
</g>
<!-- Categorie&#45;&gt;Product -->
<g id="edge1" class="edge">
<title>Categorie&#45;&gt;Product</title>
<path fill="none" stroke="#a5f802" d="M516,-405.5682C516,-392.6119 516,-378.6633 516,-364.8328"/>
<ellipse fill="none" stroke="#a5f802" cx="516" cy="-409.837" rx="4" ry="4"/>
<polygon fill="#a5f802" stroke="#a5f802" points="516.0001,-364.7989 520.5,-354.7988 516,-359.7989 516,-354.7989 516,-354.7989 516,-354.7989 516,-359.7989 511.5,-354.7989 516.0001,-364.7989 516.0001,-364.7989"/>
</g>
<!-- ApplicationRecord -->
<g id="node6" class="node">
<title>ApplicationRecord</title>
<ellipse fill="none" stroke="#000000" cx="677" cy="-467" rx="77.1866" ry="18"/>
<text text-anchor="middle" x="677" y="-463.3" font-family="Times,serif" font-size="14.00" fill="#000000">ApplicationRecord</text>
</g>
<!-- Question -->
<g id="node7" class="node">
<title>Question</title>
<path fill="none" stroke="#000000" d="M313.5,-15.5C313.5,-15.5 420.5,-15.5 420.5,-15.5 426.5,-15.5 432.5,-21.5 432.5,-27.5 432.5,-27.5 432.5,-124.5 432.5,-124.5 432.5,-130.5 426.5,-136.5 420.5,-136.5 420.5,-136.5 313.5,-136.5 313.5,-136.5 307.5,-136.5 301.5,-130.5 301.5,-124.5 301.5,-124.5 301.5,-27.5 301.5,-27.5 301.5,-21.5 307.5,-15.5 313.5,-15.5"/>
<text text-anchor="middle" x="367" y="-121.3" font-family="Times,serif" font-size="14.00" fill="#000000">Question</text>
<polyline fill="none" stroke="#000000" points="301.5,-113.5 432.5,-113.5 "/>
<text text-anchor="start" x="309.5" y="-98.3" font-family="Times,serif" font-size="14.00" fill="#000000">id :INTEGER</text>
<text text-anchor="start" x="309.5" y="-83.3" font-family="Times,serif" font-size="14.00" fill="#000000">body :varchar</text>
<text text-anchor="start" x="309.5" y="-68.3" font-family="Times,serif" font-size="14.00" fill="#000000">user_id :integer</text>
<text text-anchor="start" x="309.5" y="-53.3" font-family="Times,serif" font-size="14.00" fill="#000000">product_id :integer</text>
<text text-anchor="start" x="309.5" y="-38.3" font-family="Times,serif" font-size="14.00" fill="#000000">created_at :datetime</text>
<text text-anchor="start" x="309.5" y="-23.3" font-family="Times,serif" font-size="14.00" fill="#000000">updated_at :datetime</text>
</g>
<!-- Order -->
<g id="node8" class="node">
<title>Order</title>
<path fill="none" stroke="#000000" d="M784.5,-399C784.5,-399 891.5,-399 891.5,-399 897.5,-399 903.5,-405 903.5,-411 903.5,-411 903.5,-523 903.5,-523 903.5,-529 897.5,-535 891.5,-535 891.5,-535 784.5,-535 784.5,-535 778.5,-535 772.5,-529 772.5,-523 772.5,-523 772.5,-411 772.5,-411 772.5,-405 778.5,-399 784.5,-399"/>
<text text-anchor="middle" x="838" y="-519.8" font-family="Times,serif" font-size="14.00" fill="#000000">Order</text>
<polyline fill="none" stroke="#000000" points="772.5,-512 903.5,-512 "/>
<text text-anchor="start" x="780.5" y="-496.8" font-family="Times,serif" font-size="14.00" fill="#000000">id :INTEGER</text>
<text text-anchor="start" x="780.5" y="-481.8" font-family="Times,serif" font-size="14.00" fill="#000000">product_id :integer</text>
<text text-anchor="start" x="780.5" y="-466.8" font-family="Times,serif" font-size="14.00" fill="#000000">user_id :integer</text>
<text text-anchor="start" x="780.5" y="-451.8" font-family="Times,serif" font-size="14.00" fill="#000000">ordercount :float</text>
<text text-anchor="start" x="780.5" y="-436.8" font-family="Times,serif" font-size="14.00" fill="#000000">comment :varchar</text>
<text text-anchor="start" x="780.5" y="-421.8" font-family="Times,serif" font-size="14.00" fill="#000000">created_at :datetime</text>
<text text-anchor="start" x="780.5" y="-406.8" font-family="Times,serif" font-size="14.00" fill="#000000">updated_at :datetime</text>
</g>
<!-- Product&#45;&gt;Post -->
<g id="edge2" class="edge">
<title>Product&#45;&gt;Post</title>
<path fill="none" stroke="#8f555a" d="M516,-179.9672C516,-171.3728 516,-162.714 516,-154.2581"/>
<ellipse fill="none" stroke="#8f555a" cx="516" cy="-184.3069" rx="4" ry="4"/>
<polygon fill="#8f555a" stroke="#8f555a" points="516.0001,-154.0623 520.5,-144.0623 516,-149.0623 516,-144.0623 516,-144.0623 516,-144.0623 516,-149.0623 511.5,-144.0624 516.0001,-154.0623 516.0001,-154.0623"/>
</g>
<!-- Product&#45;&gt;Question -->
<g id="edge3" class="edge">
<title>Product&#45;&gt;Question</title>
<path fill="none" stroke="#7348b9" d="M447.6152,-181.7736C438.1454,-169.3485 428.543,-156.7494 419.4255,-144.7865"/>
<ellipse fill="none" stroke="#7348b9" cx="450.1699" cy="-185.1256" rx="4" ry="4"/>
<polygon fill="#7348b9" stroke="#7348b9" points="419.2602,-144.5695 416.7775,-133.8884 416.2293,-140.5928 413.1985,-136.6161 413.1985,-136.6161 413.1985,-136.6161 416.2293,-140.5928 409.6194,-139.3439 419.2602,-144.5695 419.2602,-144.5695"/>
</g>
<!-- User -->
<g id="node10" class="node">
<title>User</title>
<path fill="none" stroke="#000000" d="M244,-196C244,-196 420,-196 420,-196 426,-196 432,-202 432,-208 432,-208 432,-335 432,-335 432,-341 426,-347 420,-347 420,-347 244,-347 244,-347 238,-347 232,-341 232,-335 232,-335 232,-208 232,-208 232,-202 238,-196 244,-196"/>
<text text-anchor="middle" x="332" y="-331.8" font-family="Times,serif" font-size="14.00" fill="#000000">User</text>
<polyline fill="none" stroke="#000000" points="232,-324 432,-324 "/>
<text text-anchor="start" x="240" y="-308.8" font-family="Times,serif" font-size="14.00" fill="#000000">id :INTEGER</text>
<text text-anchor="start" x="240" y="-293.8" font-family="Times,serif" font-size="14.00" fill="#000000">email :varchar</text>
<text text-anchor="start" x="240" y="-278.8" font-family="Times,serif" font-size="14.00" fill="#000000">encrypted_password :varchar</text>
<text text-anchor="start" x="240" y="-263.8" font-family="Times,serif" font-size="14.00" fill="#000000">reset_password_token :varchar</text>
<text text-anchor="start" x="240" y="-248.8" font-family="Times,serif" font-size="14.00" fill="#000000">reset_password_sent_at :datetime</text>
<text text-anchor="start" x="240" y="-233.8" font-family="Times,serif" font-size="14.00" fill="#000000">remember_created_at :datetime</text>
<text text-anchor="start" x="240" y="-218.8" font-family="Times,serif" font-size="14.00" fill="#000000">created_at :datetime</text>
<text text-anchor="start" x="240" y="-203.8" font-family="Times,serif" font-size="14.00" fill="#000000">updated_at :datetime</text>
</g>
<!-- User&#45;&gt;Profile -->
<g id="edge4" class="edge">
<title>User&#45;&gt;Profile</title>
<path fill="none" stroke="#e3f058" d="M283.7326,-188.7257C277.9689,-178.8414 272.0831,-168.7478 266.3186,-158.8622"/>
<ellipse fill="none" stroke="#e3f058" cx="285.9097" cy="-192.4592" rx="4" ry="4"/>
<ellipse fill="#e3f058" stroke="#e3f058" cx="264.1611" cy="-155.1622" rx="4" ry="4"/>
</g>
<!-- User&#45;&gt;Post -->
<g id="edge5" class="edge">
<title>User&#45;&gt;Post</title>
<path fill="none" stroke="#7e7434" d="M408.8257,-189.8727C420.8257,-177.1227 433.18,-163.9963 445.0412,-151.3937"/>
<ellipse fill="none" stroke="#7e7434" cx="405.8807" cy="-193.0018" rx="4" ry="4"/>
<polygon fill="#7e7434" stroke="#7e7434" points="445.1078,-151.3229 455.2384,-147.125 448.5347,-147.6819 451.9615,-144.0409 451.9615,-144.0409 451.9615,-144.0409 448.5347,-147.6819 448.6846,-140.9567 445.1078,-151.3229 445.1078,-151.3229"/>
</g>
<!-- User&#45;&gt;Question -->
<g id="edge6" class="edge">
<title>User&#45;&gt;Question</title>
<path fill="none" stroke="#196f5b" d="M346.945,-188.0212C349.4117,-174.243 351.9476,-160.0782 354.351,-146.6537"/>
<ellipse fill="none" stroke="#196f5b" cx="346.2369" cy="-191.9772" rx="4" ry="4"/>
<polygon fill="#196f5b" stroke="#196f5b" points="354.3973,-146.3944 360.5893,-137.344 355.2785,-141.4727 356.1597,-136.5509 356.1597,-136.5509 356.1597,-136.5509 355.2785,-141.4727 351.7301,-135.7579 354.3973,-146.3944 354.3973,-146.3944"/>
</g>
</g>
</svg>
