<?xml version="1.0" encoding="UTF-8" standalone="no"?>
<!DOCTYPE svg PUBLIC "-//W3C//DTD SVG 1.1//EN"
 "http://www.w3.org/Graphics/SVG/1.1/DTD/svg11.dtd">
<!-- Generated by graphviz version 2.40.1 (20161225.0304)
 -->
<!-- Title: models_diagram Pages: 1 -->
<svg width="705pt" height="230pt"
 viewBox="0.00 0.00 705.20 230.00" xmlns="http://www.w3.org/2000/svg" xmlns:xlink="http://www.w3.org/1999/xlink">
<g id="graph0" class="graph" transform="scale(1 1) rotate(0) translate(4 226)">
<title>models_diagram</title>
<polygon fill="transparent" stroke="transparent" points="-4,4 -4,-226 701.1972,-226 701.1972,4 -4,4"/>
<!-- _diagram_info -->
<g id="node1" class="node">
<title>_diagram_info</title>
<text text-anchor="start" x="8" y="-207.6" font-family="Times,serif" font-size="13.00" fill="#000000">Models diagram</text>
<text text-anchor="start" x="8" y="-193.6" font-family="Times,serif" font-size="13.00" fill="#000000">Date: Dec 17 2018 &#45; 21:59</text>
<text text-anchor="start" x="8" y="-179.6" font-family="Times,serif" font-size="13.00" fill="#000000">Migration version: 20181216114206</text>
<text text-anchor="start" x="8" y="-165.6" font-family="Times,serif" font-size="13.00" fill="#000000">Generated by RailRoady 1.5.3</text>
<text text-anchor="start" x="8" y="-151.6" font-family="Times,serif" font-size="13.00" fill="#000000">http://railroady.prestonlee.com</text>
</g>
<!-- AdminUser -->
<g id="node2" class="node">
<title>AdminUser</title>
<ellipse fill="none" stroke="#000000" cx="284" cy="-183" rx="51.9908" ry="18"/>
<text text-anchor="middle" x="284" y="-179.3" font-family="Times,serif" font-size="14.00" fill="#000000">AdminUser</text>
</g>
<!-- Profile -->
<g id="node3" class="node">
<title>Profile</title>
<ellipse fill="none" stroke="#000000" cx="219" cy="-18" rx="34.394" ry="18"/>
<text text-anchor="middle" x="219" y="-14.3" font-family="Times,serif" font-size="14.00" fill="#000000">Profile</text>
</g>
<!-- Post -->
<g id="node4" class="node">
<title>Post</title>
<ellipse fill="none" stroke="#000000" cx="401" cy="-18" rx="27" ry="18"/>
<text text-anchor="middle" x="401" y="-14.3" font-family="Times,serif" font-size="14.00" fill="#000000">Post</text>
</g>
<!-- Categorie -->
<g id="node5" class="node">
<title>Categorie</title>
<ellipse fill="none" stroke="#000000" cx="399" cy="-183" rx="44.6926" ry="18"/>
<text text-anchor="middle" x="399" y="-179.3" font-family="Times,serif" font-size="14.00" fill="#000000">Categorie</text>
</g>
<!-- Product -->
<g id="node9" class="node">
<title>Product</title>
<ellipse fill="none" stroke="#000000" cx="399" cy="-90" rx="38.1938" ry="18"/>
<text text-anchor="middle" x="399" y="-86.3" font-family="Times,serif" font-size="14.00" fill="#000000">Product</text>
</g>
<!-- Categorie&#45;&gt;Product -->
<g id="edge1" class="edge">
<title>Categorie&#45;&gt;Product</title>
<path fill="none" stroke="#bc52da" d="M399,-156.4432C399,-144.4479 399,-130.268 399,-118.0949"/>
<ellipse fill="none" stroke="#bc52da" cx="399" cy="-160.6262" rx="4" ry="4"/>
<polygon fill="#bc52da" stroke="#bc52da" points="399.0001,-118.0192 403.5,-108.0191 399,-113.0192 399,-108.0192 399,-108.0192 399,-108.0192 399,-113.0192 394.5,-108.0192 399.0001,-118.0192 399.0001,-118.0192"/>
</g>
<!-- ApplicationRecord -->
<g id="node6" class="node">
<title>ApplicationRecord</title>
<ellipse fill="none" stroke="#000000" cx="539" cy="-183" rx="77.1866" ry="18"/>
<text text-anchor="middle" x="539" y="-179.3" font-family="Times,serif" font-size="14.00" fill="#000000">ApplicationRecord</text>
</g>
<!-- Question -->
<g id="node7" class="node">
<title>Question</title>
<ellipse fill="none" stroke="#000000" cx="314" cy="-18" rx="42.4939" ry="18"/>
<text text-anchor="middle" x="314" y="-14.3" font-family="Times,serif" font-size="14.00" fill="#000000">Question</text>
</g>
<!-- Order -->
<g id="node8" class="node">
<title>Order</title>
<ellipse fill="none" stroke="#000000" cx="666" cy="-183" rx="31.3957" ry="18"/>
<text text-anchor="middle" x="666" y="-179.3" font-family="Times,serif" font-size="14.00" fill="#000000">Order</text>
</g>
<!-- Product&#45;&gt;Post -->
<g id="edge2" class="edge">
<title>Product&#45;&gt;Post</title>
<path fill="none" stroke="#2669f7" d="M399.7274,-63.8144C399.8812,-58.2775 400.0443,-52.4053 400.2006,-46.7785"/>
<ellipse fill="none" stroke="#2669f7" cx="399.6158" cy="-67.8329" rx="4" ry="4"/>
<polygon fill="#2669f7" stroke="#2669f7" points="400.2108,-46.4094 404.9868,-36.5383 400.3496,-41.4113 400.4885,-36.4133 400.4885,-36.4133 400.4885,-36.4133 400.3496,-41.4113 395.9903,-36.2883 400.2108,-46.4094 400.2108,-46.4094"/>
</g>
<!-- Product&#45;&gt;Question -->
<g id="edge3" class="edge">
<title>Product&#45;&gt;Question</title>
<path fill="none" stroke="#b12968" d="M373.965,-68.7939C363.556,-59.9768 351.4548,-49.7264 340.8604,-40.7523"/>
<ellipse fill="none" stroke="#b12968" cx="377.0836" cy="-71.4355" rx="4" ry="4"/>
<polygon fill="#b12968" stroke="#b12968" points="340.7359,-40.6469 336.014,-30.7497 336.9207,-37.4152 333.1054,-34.1834 333.1054,-34.1834 333.1054,-34.1834 336.9207,-37.4152 330.1969,-37.6172 340.7359,-40.6469 340.7359,-40.6469"/>
</g>
<!-- User -->
<g id="node10" class="node">
<title>User</title>
<ellipse fill="none" stroke="#000000" cx="314" cy="-90" rx="27.0966" ry="18"/>
<text text-anchor="middle" x="314" y="-86.3" font-family="Times,serif" font-size="14.00" fill="#000000">User</text>
</g>
<!-- User&#45;&gt;Profile -->
<g id="edge4" class="edge">
<title>User&#45;&gt;Profile</title>
<path fill="none" stroke="#72475b" d="M289.2104,-71.2121C275.6357,-60.9239 258.8247,-48.1829 245.0561,-37.7478"/>
<ellipse fill="none" stroke="#72475b" cx="292.4952" cy="-73.7016" rx="4" ry="4"/>
<ellipse fill="#72475b" stroke="#72475b" cx="241.7568" cy="-35.2472" rx="4" ry="4"/>
</g>
<!-- User&#45;&gt;Post -->
<g id="edge5" class="edge">
<title>User&#45;&gt;Post</title>
<path fill="none" stroke="#f320df" d="M337.5989,-70.4699C349.4673,-60.6477 363.8553,-48.7404 375.923,-38.7534"/>
<ellipse fill="none" stroke="#f320df" cx="334.27" cy="-73.2248" rx="4" ry="4"/>
<polygon fill="#f320df" stroke="#f320df" points="376.1433,-38.571 386.7164,-35.6621 379.9953,-35.3832 383.8473,-32.1953 383.8473,-32.1953 383.8473,-32.1953 379.9953,-35.3832 380.9782,-28.7285 376.1433,-38.571 376.1433,-38.571"/>
</g>
<!-- User&#45;&gt;Question -->
<g id="edge6" class="edge">
<title>User&#45;&gt;Question</title>
<path fill="none" stroke="#b708d2" d="M314,-63.8144C314,-58.2775 314,-52.4053 314,-46.7785"/>
<ellipse fill="none" stroke="#b708d2" cx="314" cy="-67.8314" rx="4" ry="4"/>
<polygon fill="#b708d2" stroke="#b708d2" points="314.0001,-46.4133 318.5,-36.4132 314,-41.4133 314,-36.4133 314,-36.4133 314,-36.4133 314,-41.4133 309.5,-36.4133 314.0001,-46.4133 314.0001,-46.4133"/>
</g>
</g>
</svg>
